<svg width="112" height="117" viewBox="0 0 112 117" fill="none" xmlns="http://www.w3.org/2000/svg">
<path d="M0 8C0 3.58172 3.58172 0 8 0H104C108.418 0 112 3.58172 112 8V109C112 113.418 108.418 117 104 117H8C3.58172 117 0 113.418 0 109V8Z" fill="#D9D9D9"/>
<g clip-path="url(#clip0_29_60)">
<path d="M34.824 15C30.2022 15 26.7822 18.823 26.9353 22.9689C27.0824 26.9518 26.8913 32.1108 25.5172 36.3177C24.1389 40.5369 21.8076 43.2095 18 43.5528V47.4269C21.8076 47.7702 24.1389 50.4428 25.5172 54.6623C26.8913 58.8692 27.0824 64.0276 26.9353 68.0108C26.7822 72.1561 30.2022 75.9797 34.8246 75.9797H82.1821C86.8041 75.9797 90.2232 72.1567 90.0701 68.0108C89.9233 64.0279 90.114 58.8692 91.4882 54.6623C92.8674 50.4431 95.1924 47.7699 99 47.4269V43.5528C95.1924 43.2095 92.8674 40.5369 91.4885 36.3177C90.114 32.1114 89.9233 26.9521 90.0701 22.9689C90.2232 18.8236 86.8041 15 82.1821 15H34.8233H34.824V15ZM72.9155 52.5368C72.9155 58.2457 68.4098 61.7078 60.9325 61.7078H48.2035C47.8395 61.7077 47.4903 61.5709 47.2329 61.3276C46.9755 61.0843 46.8309 60.7544 46.8309 60.4103V30.5694C46.8309 30.3989 46.8664 30.2302 46.9354 30.0728C47.0043 29.9153 47.1054 29.7722 47.2329 29.6517C47.3604 29.5312 47.5118 29.4356 47.6784 29.3704C47.845 29.3052 48.0235 29.2716 48.2038 29.2716H60.8598C67.0945 29.2716 71.1863 32.4636 71.1863 37.364C71.1863 40.8036 68.4336 43.8829 64.9268 44.422V44.6017C69.7011 45.0966 72.9155 48.2211 72.9155 52.5368V52.5368ZM59.5441 33.3846H52.2867V43.0729H58.3997C63.1249 43.0729 65.7308 41.2746 65.7308 38.0601C65.7308 35.0481 63.49 33.3846 59.5445 33.3846H59.5441ZM52.2867 46.9171V57.5935H59.8115C64.731 57.5935 67.3375 55.728 67.3375 52.2217C67.3375 48.7148 64.6585 46.9165 59.4951 46.9165H52.2867V46.9171Z" fill="#7E13F8"/>
</g>
<path d="M27.152 99.288C27.7493 99.3947 28.256 99.7093 28.672 100.232C29.088 100.755 29.296 101.347 29.296 102.008C29.296 102.573 29.1467 103.085 28.848 103.544C28.56 103.992 28.1387 104.349 27.584 104.616C27.0293 104.872 26.384 105 25.648 105H21.2V93.88H25.44C26.1973 93.88 26.848 94.008 27.392 94.264C27.936 94.52 28.3467 94.8667 28.624 95.304C28.9013 95.7307 29.04 96.2107 29.04 96.744C29.04 97.384 28.8693 97.9173 28.528 98.344C28.1867 98.7707 27.728 99.0853 27.152 99.288ZM23.024 98.552H25.28C25.8773 98.552 26.3413 98.4187 26.672 98.152C27.0133 97.8747 27.184 97.48 27.184 96.968C27.184 96.4667 27.0133 96.0773 26.672 95.8C26.3413 95.512 25.8773 95.368 25.28 95.368H23.024V98.552ZM25.488 103.512C26.1067 103.512 26.592 103.363 26.944 103.064C27.296 102.765 27.472 102.349 27.472 101.816C27.472 101.272 27.2853 100.84 26.912 100.52C26.5387 100.2 26.0427 100.04 25.424 100.04H23.024V103.512H25.488ZM35.1021 105.144C34.2701 105.144 33.5181 104.957 32.8461 104.584C32.1741 104.2 31.6461 103.667 31.2621 102.984C30.8781 102.291 30.6861 101.491 30.6861 100.584C30.6861 99.688 30.8835 98.8933 31.2781 98.2C31.6728 97.5067 32.2115 96.9733 32.8941 96.6C33.5768 96.2267 34.3395 96.04 35.1821 96.04C36.0248 96.04 36.7875 96.2267 37.4701 96.6C38.1528 96.9733 38.6915 97.5067 39.0861 98.2C39.4808 98.8933 39.6781 99.688 39.6781 100.584C39.6781 101.48 39.4755 102.275 39.0701 102.968C38.6648 103.661 38.1101 104.2 37.4061 104.584C36.7128 104.957 35.9448 105.144 35.1021 105.144ZM35.1021 103.56C35.5715 103.56 36.0088 103.448 36.4141 103.224C36.8301 103 37.1661 102.664 37.4221 102.216C37.6781 101.768 37.8061 101.224 37.8061 100.584C37.8061 99.944 37.6835 99.4053 37.4381 98.968C37.1928 98.52 36.8675 98.184 36.4621 97.96C36.0568 97.736 35.6195 97.624 35.1501 97.624C34.6808 97.624 34.2435 97.736 33.8381 97.96C33.4435 98.184 33.1288 98.52 32.8941 98.968C32.6595 99.4053 32.5421 99.944 32.5421 100.584C32.5421 101.533 32.7821 102.269 33.2621 102.792C33.7528 103.304 34.3661 103.56 35.1021 103.56ZM45.3053 105.144C44.4733 105.144 43.7213 104.957 43.0493 104.584C42.3773 104.2 41.8493 103.667 41.4653 102.984C41.0813 102.291 40.8893 101.491 40.8893 100.584C40.8893 99.688 41.0866 98.8933 41.4813 98.2C41.8759 97.5067 42.4146 96.9733 43.0973 96.6C43.7799 96.2267 44.5426 96.04 45.3853 96.04C46.2279 96.04 46.9906 96.2267 47.6733 96.6C48.3559 96.9733 48.8946 97.5067 49.2893 98.2C49.6839 98.8933 49.8813 99.688 49.8813 100.584C49.8813 101.48 49.6786 102.275 49.2733 102.968C48.8679 103.661 48.3133 104.2 47.6093 104.584C46.9159 104.957 46.1479 105.144 45.3053 105.144ZM45.3053 103.56C45.7746 103.56 46.2119 103.448 46.6173 103.224C47.0333 103 47.3693 102.664 47.6253 102.216C47.8813 101.768 48.0093 101.224 48.0093 100.584C48.0093 99.944 47.8866 99.4053 47.6413 98.968C47.3959 98.52 47.0706 98.184 46.6653 97.96C46.2599 97.736 45.8226 97.624 45.3533 97.624C44.8839 97.624 44.4466 97.736 44.0413 97.96C43.6466 98.184 43.3319 98.52 43.0973 98.968C42.8626 99.4053 42.7453 99.944 42.7453 100.584C42.7453 101.533 42.9853 102.269 43.4653 102.792C43.9559 103.304 44.5693 103.56 45.3053 103.56ZM53.8124 97.672V102.552C53.8124 102.883 53.887 103.123 54.0364 103.272C54.1964 103.411 54.463 103.48 54.8364 103.48H55.9564V105H54.5164C53.695 105 53.0657 104.808 52.6284 104.424C52.191 104.04 51.9724 103.416 51.9724 102.552V97.672H50.9324V96.184H51.9724V93.992H53.8124V96.184H55.9564V97.672H53.8124ZM61.3015 105.112C60.5548 105.112 59.8828 104.984 59.2855 104.728C58.6882 104.461 58.2188 104.088 57.8775 103.608C57.5362 103.128 57.3655 102.568 57.3655 101.928H59.3175C59.3602 102.408 59.5468 102.803 59.8775 103.112C60.2188 103.421 60.6935 103.576 61.3015 103.576C61.9308 103.576 62.4215 103.427 62.7735 103.128C63.1255 102.819 63.3015 102.424 63.3015 101.944C63.3015 101.571 63.1895 101.267 62.9655 101.032C62.7522 100.797 62.4802 100.616 62.1495 100.488C61.8295 100.36 61.3815 100.221 60.8055 100.072C60.0802 99.88 59.4882 99.688 59.0295 99.496C58.5815 99.2933 58.1975 98.984 57.8775 98.568C57.5575 98.152 57.3975 97.5973 57.3975 96.904C57.3975 96.264 57.5575 95.704 57.8775 95.224C58.1975 94.744 58.6455 94.376 59.2215 94.12C59.7975 93.864 60.4642 93.736 61.2215 93.736C62.2988 93.736 63.1788 94.008 63.8615 94.552C64.5548 95.0853 64.9388 95.8213 65.0135 96.76H62.9975C62.9655 96.3547 62.7735 96.008 62.4215 95.72C62.0695 95.432 61.6055 95.288 61.0295 95.288C60.5068 95.288 60.0802 95.4213 59.7495 95.688C59.4188 95.9547 59.2535 96.3387 59.2535 96.84C59.2535 97.1813 59.3548 97.464 59.5575 97.688C59.7708 97.9013 60.0375 98.072 60.3575 98.2C60.6775 98.328 61.1148 98.4667 61.6695 98.616C62.4055 98.8187 63.0028 99.0213 63.4615 99.224C63.9308 99.4267 64.3255 99.7413 64.6455 100.168C64.9762 100.584 65.1415 101.144 65.1415 101.848C65.1415 102.413 64.9868 102.947 64.6775 103.448C64.3788 103.949 63.9362 104.355 63.3495 104.664C62.7735 104.963 62.0908 105.112 61.3015 105.112ZM69.4218 97.672V102.552C69.4218 102.883 69.4964 103.123 69.6458 103.272C69.8058 103.411 70.0724 103.48 70.4458 103.48H71.5658V105H70.1258C69.3044 105 68.6751 104.808 68.2378 104.424C67.8004 104.04 67.5818 103.416 67.5818 102.552V97.672H66.5418V96.184H67.5818V93.992H69.4218V96.184H71.5658V97.672H69.4218ZM75.0709 97.464C75.3375 97.016 75.6895 96.6693 76.1269 96.424C76.5749 96.168 77.1029 96.04 77.7109 96.04V97.928H77.2469C76.5322 97.928 75.9882 98.1093 75.6149 98.472C75.2522 98.8347 75.0709 99.464 75.0709 100.36V105H73.2469V96.184H75.0709V97.464ZM78.7795 100.552C78.7795 99.6667 78.9608 98.8827 79.3235 98.2C79.6968 97.5173 80.1982 96.9893 80.8275 96.616C81.4675 96.232 82.1715 96.04 82.9395 96.04C83.6328 96.04 84.2355 96.1787 84.7475 96.456C85.2702 96.7227 85.6862 97.0587 85.9955 97.464V96.184H87.8355V105H85.9955V103.688C85.6862 104.104 85.2648 104.451 84.7315 104.728C84.1982 105.005 83.5902 105.144 82.9075 105.144C82.1502 105.144 81.4568 104.952 80.8275 104.568C80.1982 104.173 79.6968 103.629 79.3235 102.936C78.9608 102.232 78.7795 101.437 78.7795 100.552ZM85.9955 100.584C85.9955 99.976 85.8675 99.448 85.6115 99C85.3662 98.552 85.0408 98.2107 84.6355 97.976C84.2302 97.7413 83.7928 97.624 83.3235 97.624C82.8542 97.624 82.4168 97.7413 82.0115 97.976C81.6062 98.2 81.2755 98.536 81.0195 98.984C80.7742 99.4213 80.6515 99.944 80.6515 100.552C80.6515 101.16 80.7742 101.693 81.0195 102.152C81.2755 102.611 81.6062 102.963 82.0115 103.208C82.4275 103.443 82.8648 103.56 83.3235 103.56C83.7928 103.56 84.2302 103.443 84.6355 103.208C85.0408 102.973 85.3662 102.632 85.6115 102.184C85.8675 101.725 85.9955 101.192 85.9955 100.584ZM92.0553 97.48C92.3646 97.0747 92.7859 96.7333 93.3193 96.456C93.8526 96.1787 94.4553 96.04 95.1273 96.04C95.8953 96.04 96.5939 96.232 97.2233 96.616C97.8633 96.9893 98.3646 97.5173 98.7273 98.2C99.0899 98.8827 99.2713 99.6667 99.2713 100.552C99.2713 101.437 99.0899 102.232 98.7273 102.936C98.3646 103.629 97.8633 104.173 97.2233 104.568C96.5939 104.952 95.8953 105.144 95.1273 105.144C94.4553 105.144 93.8579 105.011 93.3353 104.744C92.8126 104.467 92.3859 104.125 92.0553 103.72V109.192H90.2313V96.184H92.0553V97.48ZM97.4153 100.552C97.4153 99.944 97.2873 99.4213 97.0312 98.984C96.7859 98.536 96.4553 98.2 96.0393 97.976C95.6339 97.7413 95.1966 97.624 94.7273 97.624C94.2686 97.624 93.8313 97.7413 93.4153 97.976C93.0099 98.2107 92.6793 98.552 92.4233 99C92.1779 99.448 92.0553 99.976 92.0553 100.584C92.0553 101.192 92.1779 101.725 92.4233 102.184C92.6793 102.632 93.0099 102.973 93.4153 103.208C93.8313 103.443 94.2686 103.56 94.7273 103.56C95.1966 103.56 95.6339 103.443 96.0393 103.208C96.4553 102.963 96.7859 102.611 97.0312 102.152C97.2873 101.693 97.4153 101.16 97.4153 100.552Z" fill="black"/>
<defs>
<clipPath id="clip0_29_60">
<rect width="81" height="61" fill="white" transform="translate(18 15)"/>
</clipPath>
</defs>
</svg>
