<svg width="112" height="117" viewBox="0 0 112 117" fill="none" xmlns="http://www.w3.org/2000/svg">
<rect width="112" height="117" rx="8" fill="#D9D9D9"/>
<path d="M29.6771 79.1525L23.7112 16.9375H89.2887L83.3148 79.1426L56.4601 86.0625L29.6771 79.1525Z" fill="#1572B6"/>
<path d="M56.5 80.7745L78.2016 75.1827L83.3069 22.0256H56.5V80.7745Z" fill="#33A9DC"/>
<path d="M56.5 44.5653H67.3641L68.1131 36.7517H56.5V29.1208H77.0859L76.8894 31.1674L74.8733 52.1962H56.5V44.5653V44.5653Z" fill="white"/>
<path d="M56.5504 64.3819L56.5132 64.3918L47.3704 62.0959L46.786 56.0104H38.5437L39.6939 67.9913L56.5106 72.3313L56.5504 72.3214V64.3819V64.3819Z" fill="#EBEBEB"/>
<path d="M66.6655 51.8728L65.6773 62.0909L56.5212 64.3869V72.3264L73.3512 67.9912L73.4761 66.7026L74.9025 51.8728H66.6655V51.8728Z" fill="white"/>
<path d="M56.5293 29.1208V36.7517H36.6977L36.533 35.0359L36.1585 31.1674L35.9619 29.1208H56.5293V29.1208ZM56.5 44.5653V52.1962H47.4714L47.3068 50.4804L46.9349 46.6119L46.7383 44.5653H56.5V44.5653Z" fill="#EBEBEB"/>
<path d="M41.592 100.416C41.592 99.328 41.8427 98.352 42.344 97.488C42.856 96.624 43.544 95.952 44.408 95.472C45.2827 94.9813 46.2373 94.736 47.272 94.736C48.456 94.736 49.5067 95.0293 50.424 95.616C51.352 96.192 52.024 97.0133 52.44 98.08H50.248C49.96 97.4933 49.56 97.056 49.048 96.768C48.536 96.48 47.944 96.336 47.272 96.336C46.536 96.336 45.88 96.5013 45.304 96.832C44.728 97.1627 44.2747 97.6373 43.944 98.256C43.624 98.8747 43.464 99.5947 43.464 100.416C43.464 101.237 43.624 101.957 43.944 102.576C44.2747 103.195 44.728 103.675 45.304 104.016C45.88 104.347 46.536 104.512 47.272 104.512C47.944 104.512 48.536 104.368 49.048 104.08C49.56 103.792 49.96 103.355 50.248 102.768H52.44C52.024 103.835 51.352 104.656 50.424 105.232C49.5067 105.808 48.456 106.096 47.272 106.096C46.2267 106.096 45.272 105.856 44.408 105.376C43.544 104.885 42.856 104.208 42.344 103.344C41.8427 102.48 41.592 101.504 41.592 100.416ZM58.239 106.112C57.4923 106.112 56.8203 105.984 56.223 105.728C55.6257 105.461 55.1563 105.088 54.815 104.608C54.4737 104.128 54.303 103.568 54.303 102.928H56.255C56.2977 103.408 56.4843 103.803 56.815 104.112C57.1563 104.421 57.631 104.576 58.239 104.576C58.8683 104.576 59.359 104.427 59.711 104.128C60.063 103.819 60.239 103.424 60.239 102.944C60.239 102.571 60.127 102.267 59.903 102.032C59.6897 101.797 59.4177 101.616 59.087 101.488C58.767 101.36 58.319 101.221 57.743 101.072C57.0177 100.88 56.4257 100.688 55.967 100.496C55.519 100.293 55.135 99.984 54.815 99.568C54.495 99.152 54.335 98.5973 54.335 97.904C54.335 97.264 54.495 96.704 54.815 96.224C55.135 95.744 55.583 95.376 56.159 95.12C56.735 94.864 57.4017 94.736 58.159 94.736C59.2363 94.736 60.1163 95.008 60.799 95.552C61.4923 96.0853 61.8763 96.8213 61.951 97.76H59.935C59.903 97.3547 59.711 97.008 59.359 96.72C59.007 96.432 58.543 96.288 57.967 96.288C57.4443 96.288 57.0177 96.4213 56.687 96.688C56.3563 96.9547 56.191 97.3387 56.191 97.84C56.191 98.1813 56.2923 98.464 56.495 98.688C56.7083 98.9013 56.975 99.072 57.295 99.2C57.615 99.328 58.0523 99.4667 58.607 99.616C59.343 99.8187 59.9403 100.021 60.399 100.224C60.8683 100.427 61.263 100.741 61.583 101.168C61.9137 101.584 62.079 102.144 62.079 102.848C62.079 103.413 61.9243 103.947 61.615 104.448C61.3163 104.949 60.8737 105.355 60.287 105.664C59.711 105.963 59.0283 106.112 58.239 106.112ZM67.8953 106.112C67.1486 106.112 66.4766 105.984 65.8793 105.728C65.2819 105.461 64.8126 105.088 64.4713 104.608C64.1299 104.128 63.9593 103.568 63.9593 102.928H65.9113C65.9539 103.408 66.1406 103.803 66.4713 104.112C66.8126 104.421 67.2873 104.576 67.8953 104.576C68.5246 104.576 69.0153 104.427 69.3673 104.128C69.7193 103.819 69.8953 103.424 69.8953 102.944C69.8953 102.571 69.7833 102.267 69.5593 102.032C69.3459 101.797 69.0739 101.616 68.7433 101.488C68.4233 101.36 67.9753 101.221 67.3993 101.072C66.6739 100.88 66.0819 100.688 65.6233 100.496C65.1753 100.293 64.7913 99.984 64.4713 99.568C64.1513 99.152 63.9913 98.5973 63.9913 97.904C63.9913 97.264 64.1513 96.704 64.4713 96.224C64.7913 95.744 65.2393 95.376 65.8153 95.12C66.3913 94.864 67.0579 94.736 67.8153 94.736C68.8926 94.736 69.7726 95.008 70.4553 95.552C71.1486 96.0853 71.5326 96.8213 71.6073 97.76H69.5913C69.5593 97.3547 69.3673 97.008 69.0153 96.72C68.6633 96.432 68.1993 96.288 67.6233 96.288C67.1006 96.288 66.6739 96.4213 66.3433 96.688C66.0126 96.9547 65.8473 97.3387 65.8473 97.84C65.8473 98.1813 65.9486 98.464 66.1513 98.688C66.3646 98.9013 66.6313 99.072 66.9513 99.2C67.2713 99.328 67.7086 99.4667 68.2633 99.616C68.9993 99.8187 69.5966 100.021 70.0553 100.224C70.5246 100.427 70.9193 100.741 71.2393 101.168C71.5699 101.584 71.7353 102.144 71.7353 102.848C71.7353 103.413 71.5806 103.947 71.2713 104.448C70.9726 104.949 70.5299 105.355 69.9433 105.664C69.3673 105.963 68.6846 106.112 67.8953 106.112Z" fill="black"/>
</svg>
