<svg width="112" height="117" viewBox="0 0 112 117" fill="none" xmlns="http://www.w3.org/2000/svg">
<rect width="112" height="117" rx="8" fill="#D9D9D9"/>
<g clip-path="url(#clip0_29_58)">
<path d="M37 87C44.176 87 50 81.5493 50 74.8333V62.6667H37C29.824 62.6667 24 68.1173 24 74.8333C24 81.5493 29.824 87 37 87Z" fill="#0ACF83"/>
<path d="M24 50.5C24 43.784 29.824 38.3333 37 38.3333H50V62.6667H37C29.824 62.6667 24 57.216 24 50.5Z" fill="#A259FF"/>
<path d="M24 26.1667C24 19.4507 29.824 14 37 14H50V38.3333H37C29.824 38.3333 24 32.8827 24 26.1667Z" fill="#F24E1E"/>
<path d="M50 14H63C70.176 14 76 19.4507 76 26.1667C76 32.8827 70.176 38.3333 63 38.3333H50V14Z" fill="#FF7262"/>
<path d="M76 50.5C76 57.216 70.176 62.6667 63 62.6667C55.824 62.6667 50 57.216 50 50.5C50 43.784 55.824 38.3333 63 38.3333C70.176 38.3333 76 43.784 76 50.5Z" fill="#1ABCFE"/>
</g>
<path d="M31.744 95.88V97.368H27.024V100.648H30.704V102.136H27.024V107H25.2V95.88H31.744ZM34.3624 97.016C34.0317 97.016 33.7544 96.904 33.5304 96.68C33.3064 96.456 33.1944 96.1787 33.1944 95.848C33.1944 95.5173 33.3064 95.24 33.5304 95.016C33.7544 94.792 34.0317 94.68 34.3624 94.68C34.6824 94.68 34.9544 94.792 35.1784 95.016C35.4024 95.24 35.5144 95.5173 35.5144 95.848C35.5144 96.1787 35.4024 96.456 35.1784 96.68C34.9544 96.904 34.6824 97.016 34.3624 97.016ZM35.2584 98.184V107H33.4344V98.184H35.2584ZM41.2051 98.04C41.8878 98.04 42.4905 98.1787 43.0131 98.456C43.5465 98.7227 43.9625 99.0587 44.2611 99.464V98.184H46.1011V107.144C46.1011 107.955 45.9305 108.675 45.5891 109.304C45.2478 109.944 44.7518 110.445 44.1011 110.808C43.4611 111.171 42.6931 111.352 41.7971 111.352C40.6025 111.352 39.6105 111.069 38.8211 110.504C38.0318 109.949 37.5838 109.192 37.4771 108.232H39.2851C39.4238 108.691 39.7171 109.059 40.1651 109.336C40.6238 109.624 41.1678 109.768 41.7971 109.768C42.5331 109.768 43.1251 109.544 43.5731 109.096C44.0318 108.648 44.2611 107.997 44.2611 107.144V105.672C43.9518 106.088 43.5305 106.44 42.9971 106.728C42.4745 107.005 41.8771 107.144 41.2051 107.144C40.4371 107.144 39.7331 106.952 39.0931 106.568C38.4638 106.173 37.9625 105.629 37.5891 104.936C37.2265 104.232 37.0451 103.437 37.0451 102.552C37.0451 101.667 37.2265 100.883 37.5891 100.2C37.9625 99.5173 38.4638 98.9893 39.0931 98.616C39.7331 98.232 40.4371 98.04 41.2051 98.04ZM44.2611 102.584C44.2611 101.976 44.1331 101.448 43.8771 101C43.6318 100.552 43.3065 100.211 42.9011 99.976C42.4958 99.7413 42.0585 99.624 41.5891 99.624C41.1198 99.624 40.6825 99.7413 40.2771 99.976C39.8718 100.2 39.5411 100.536 39.2851 100.984C39.0398 101.421 38.9171 101.944 38.9171 102.552C38.9171 103.16 39.0398 103.693 39.2851 104.152C39.5411 104.611 39.8718 104.963 40.2771 105.208C40.6931 105.443 41.1305 105.56 41.5891 105.56C42.0585 105.56 42.4958 105.443 42.9011 105.208C43.3065 104.973 43.6318 104.632 43.8771 104.184C44.1331 103.725 44.2611 103.192 44.2611 102.584ZM59.1689 98.04C59.8622 98.04 60.4809 98.184 61.0249 98.472C61.5795 98.76 62.0115 99.1867 62.3209 99.752C62.6409 100.317 62.8009 101 62.8009 101.8V107H60.9929V102.072C60.9929 101.283 60.7955 100.68 60.4009 100.264C60.0062 99.8373 59.4675 99.624 58.7849 99.624C58.1022 99.624 57.5582 99.8373 57.1529 100.264C56.7582 100.68 56.5609 101.283 56.5609 102.072V107H54.7529V102.072C54.7529 101.283 54.5555 100.68 54.1609 100.264C53.7662 99.8373 53.2275 99.624 52.5449 99.624C51.8622 99.624 51.3182 99.8373 50.9129 100.264C50.5182 100.68 50.3209 101.283 50.3209 102.072V107H48.4969V98.184H50.3209V99.192C50.6195 98.8293 50.9982 98.5467 51.4569 98.344C51.9155 98.1413 52.4062 98.04 52.9289 98.04C53.6329 98.04 54.2622 98.1893 54.8169 98.488C55.3715 98.7867 55.7982 99.2187 56.0969 99.784C56.3635 99.2507 56.7795 98.8293 57.3449 98.52C57.9102 98.2 58.5182 98.04 59.1689 98.04ZM64.5139 102.552C64.5139 101.667 64.6952 100.883 65.0579 100.2C65.4312 99.5173 65.9325 98.9893 66.5619 98.616C67.2019 98.232 67.9059 98.04 68.6739 98.04C69.3672 98.04 69.9699 98.1787 70.4819 98.456C71.0045 98.7227 71.4205 99.0587 71.7299 99.464V98.184H73.5699V107H71.7299V105.688C71.4205 106.104 70.9992 106.451 70.4659 106.728C69.9325 107.005 69.3245 107.144 68.6419 107.144C67.8845 107.144 67.1912 106.952 66.5619 106.568C65.9325 106.173 65.4312 105.629 65.0579 104.936C64.6952 104.232 64.5139 103.437 64.5139 102.552ZM71.7299 102.584C71.7299 101.976 71.6019 101.448 71.3459 101C71.1005 100.552 70.7752 100.211 70.3699 99.976C69.9645 99.7413 69.5272 99.624 69.0579 99.624C68.5885 99.624 68.1512 99.7413 67.7459 99.976C67.3405 100.2 67.0099 100.536 66.7539 100.984C66.5085 101.421 66.3859 101.944 66.3859 102.552C66.3859 103.16 66.5085 103.693 66.7539 104.152C67.0099 104.611 67.3405 104.963 67.7459 105.208C68.1619 105.443 68.5992 105.56 69.0579 105.56C69.5272 105.56 69.9645 105.443 70.3699 105.208C70.7752 104.973 71.1005 104.632 71.3459 104.184C71.6019 103.725 71.7299 103.192 71.7299 102.584Z" fill="black"/>
<defs>
<clipPath id="clip0_29_58">
<rect width="52" height="73" fill="white" transform="translate(24 14)"/>
</clipPath>
</defs>
</svg>
