<svg width="112" height="117" viewBox="0 0 112 117" fill="none" xmlns="http://www.w3.org/2000/svg">
<rect width="112" height="117" rx="8" fill="#D9D9D9"/>
<path d="M30.2305 77.4524L24.0513 16.8125H91.9488L85.7613 77.4428L57.9588 84.1875L30.2305 77.4524Z" fill="#E44F26"/>
<path d="M58 79.0333L80.4675 73.5832L85.753 21.7718H58V79.0333Z" fill="#F1662A"/>
<path d="M58 44.2606H46.7525L45.977 36.6448H58V29.2071H36.6875L36.891 31.2043L38.9783 51.6983H58V44.2606V44.2606ZM58 63.5756L57.9615 63.5852L48.496 61.3498L47.891 55.4184H39.3577L40.5485 67.0935L57.9615 71.3237L58 71.3141V63.5756Z" fill="#EBEBEB"/>
<path d="M57.9697 44.2606V51.6983H68.4362L67.4517 61.345L57.9697 63.5828V71.3213L75.3965 67.0935L75.523 65.8374L77.5195 46.2578L77.7285 44.2606H57.9697V44.2606ZM57.9697 29.2071V36.6448H78.5012L78.6717 34.9749L79.0595 31.2043L79.263 29.2071H57.9697V29.2071Z" fill="white"/>
<path d="M47.08 95.88V107H45.256V102.136H40.024V107H38.2V95.88H40.024V100.648H45.256V95.88H47.08ZM56.6653 95.88V97.368H53.7053V107H51.8813V97.368H48.9053V95.88H56.6653ZM70.2245 95.88V107H68.4005V99.384L65.0085 107H63.7445L60.3365 99.384V107H58.5125V95.88H60.4805L64.3845 104.6L68.2725 95.88H70.2245ZM74.4459 105.528H78.2059V107H72.6219V95.88H74.4459V105.528Z" fill="black"/>
</svg>
