<svg width="112" height="117" viewBox="0 0 112 117" fill="none" xmlns="http://www.w3.org/2000/svg">
<rect width="112" height="117" rx="8" fill="#D9D9D9"/>
<g clip-path="url(#clip0_29_61)">
<path d="M23 14H92V82H23V14Z" fill="#F7DF1E"/>
<path d="M41.1426 70.8257L46.4227 67.6764C47.4415 69.4564 48.3682 70.9625 50.591 70.9625C52.7217 70.9625 54.0653 70.1412 54.0653 66.9462V45.2186H60.5494V67.0366C60.5494 73.6551 56.6126 76.6679 50.8689 76.6679C45.6818 76.6679 42.6708 74.0204 41.1423 70.8252M64.0714 70.1409L69.3509 67.1285C70.7409 69.3653 72.5473 71.0084 75.7429 71.0084C78.4298 71.0084 80.143 69.6846 80.143 67.8587C80.143 65.6678 78.3829 64.8916 75.4186 63.614L73.7979 62.9287C69.1197 60.9665 66.0166 58.5015 66.0166 53.2979C66.0166 48.505 69.7218 44.8531 75.5116 44.8531C79.6338 44.8531 82.5981 46.2684 84.7285 49.9656L79.6796 53.1611C78.5678 51.1984 77.3641 50.4225 75.5113 50.4225C73.6122 50.4225 72.408 51.6093 72.408 53.1611C72.408 55.0781 73.6122 55.8545 76.3911 57.0414L78.0121 57.7259C83.524 60.0541 86.6271 62.4274 86.6271 67.7676C86.6271 73.5194 82.0418 76.6687 75.8817 76.6687C69.8606 76.6687 65.9699 73.8387 64.0711 70.1412" fill="black"/>
</g>
<path d="M22.264 93.88V101.896C22.264 102.888 21.96 103.672 21.352 104.248C20.7547 104.824 19.9653 105.112 18.984 105.112C18.0027 105.112 17.208 104.824 16.6 104.248C16.0027 103.672 15.704 102.888 15.704 101.896H17.544C17.5547 102.387 17.6773 102.776 17.912 103.064C18.1573 103.352 18.5147 103.496 18.984 103.496C19.4533 103.496 19.8107 103.352 20.056 103.064C20.3013 102.765 20.424 102.376 20.424 101.896V93.88H22.264ZM24.6233 100.552C24.6233 99.6667 24.8046 98.8827 25.1673 98.2C25.5406 97.5173 26.0419 96.9893 26.6713 96.616C27.3113 96.232 28.0153 96.04 28.7833 96.04C29.4766 96.04 30.0793 96.1787 30.5913 96.456C31.1139 96.7227 31.5299 97.0587 31.8393 97.464V96.184H33.6793V105H31.8393V103.688C31.5299 104.104 31.1086 104.451 30.5753 104.728C30.0419 105.005 29.4339 105.144 28.7513 105.144C27.9939 105.144 27.3006 104.952 26.6713 104.568C26.0419 104.173 25.5406 103.629 25.1673 102.936C24.8046 102.232 24.6233 101.437 24.6233 100.552ZM31.8393 100.584C31.8393 99.976 31.7113 99.448 31.4553 99C31.2099 98.552 30.8846 98.2107 30.4793 97.976C30.0739 97.7413 29.6366 97.624 29.1673 97.624C28.6979 97.624 28.2606 97.7413 27.8553 97.976C27.4499 98.2 27.1193 98.536 26.8633 98.984C26.6179 99.4213 26.4953 99.944 26.4953 100.552C26.4953 101.16 26.6179 101.693 26.8633 102.152C27.1193 102.611 27.4499 102.963 27.8553 103.208C28.2713 103.443 28.7086 103.56 29.1673 103.56C29.6366 103.56 30.0739 103.443 30.4793 103.208C30.8846 102.973 31.2099 102.632 31.4553 102.184C31.7113 101.725 31.8393 101.192 31.8393 100.584ZM39.483 103.368L41.979 96.184H43.915L40.555 105H38.379L35.035 96.184H36.987L39.483 103.368ZM44.6858 100.552C44.6858 99.6667 44.8671 98.8827 45.2298 98.2C45.6031 97.5173 46.1044 96.9893 46.7338 96.616C47.3738 96.232 48.0778 96.04 48.8458 96.04C49.5391 96.04 50.1418 96.1787 50.6538 96.456C51.1764 96.7227 51.5924 97.0587 51.9018 97.464V96.184H53.7418V105H51.9018V103.688C51.5924 104.104 51.1711 104.451 50.6378 104.728C50.1044 105.005 49.4964 105.144 48.8138 105.144C48.0564 105.144 47.3631 104.952 46.7338 104.568C46.1044 104.173 45.6031 103.629 45.2298 102.936C44.8671 102.232 44.6858 101.437 44.6858 100.552ZM51.9018 100.584C51.9018 99.976 51.7738 99.448 51.5178 99C51.2724 98.552 50.9471 98.2107 50.5418 97.976C50.1364 97.7413 49.6991 97.624 49.2298 97.624C48.7604 97.624 48.3231 97.7413 47.9178 97.976C47.5124 98.2 47.1818 98.536 46.9258 98.984C46.6804 99.4213 46.5578 99.944 46.5578 100.552C46.5578 101.16 46.6804 101.693 46.9258 102.152C47.1818 102.611 47.5124 102.963 47.9178 103.208C48.3338 103.443 48.7711 103.56 49.2298 103.56C49.6991 103.56 50.1364 103.443 50.5418 103.208C50.9471 102.973 51.2724 102.632 51.5178 102.184C51.7738 101.725 51.9018 101.192 51.9018 100.584ZM59.8015 105.112C59.0548 105.112 58.3828 104.984 57.7855 104.728C57.1882 104.461 56.7188 104.088 56.3775 103.608C56.0362 103.128 55.8655 102.568 55.8655 101.928H57.8175C57.8602 102.408 58.0468 102.803 58.3775 103.112C58.7188 103.421 59.1935 103.576 59.8015 103.576C60.4308 103.576 60.9215 103.427 61.2735 103.128C61.6255 102.819 61.8015 102.424 61.8015 101.944C61.8015 101.571 61.6895 101.267 61.4655 101.032C61.2522 100.797 60.9802 100.616 60.6495 100.488C60.3295 100.36 59.8815 100.221 59.3055 100.072C58.5802 99.88 57.9882 99.688 57.5295 99.496C57.0815 99.2933 56.6975 98.984 56.3775 98.568C56.0575 98.152 55.8975 97.5973 55.8975 96.904C55.8975 96.264 56.0575 95.704 56.3775 95.224C56.6975 94.744 57.1455 94.376 57.7215 94.12C58.2975 93.864 58.9642 93.736 59.7215 93.736C60.7988 93.736 61.6788 94.008 62.3615 94.552C63.0548 95.0853 63.4388 95.8213 63.5135 96.76H61.4975C61.4655 96.3547 61.2735 96.008 60.9215 95.72C60.5695 95.432 60.1055 95.288 59.5295 95.288C59.0068 95.288 58.5802 95.4213 58.2495 95.688C57.9188 95.9547 57.7535 96.3387 57.7535 96.84C57.7535 97.1813 57.8548 97.464 58.0575 97.688C58.2708 97.9013 58.5375 98.072 58.8575 98.2C59.1775 98.328 59.6148 98.4667 60.1695 98.616C60.9055 98.8187 61.5028 99.0213 61.9615 99.224C62.4308 99.4267 62.8255 99.7413 63.1455 100.168C63.4762 100.584 63.6415 101.144 63.6415 101.848C63.6415 102.413 63.4868 102.947 63.1775 103.448C62.8788 103.949 62.4362 104.355 61.8495 104.664C61.2735 104.963 60.5908 105.112 59.8015 105.112ZM65.1858 100.584C65.1858 99.6773 65.3671 98.8827 65.7298 98.2C66.1031 97.5067 66.6151 96.9733 67.2658 96.6C67.9164 96.2267 68.6631 96.04 69.5058 96.04C70.5724 96.04 71.4524 96.296 72.1458 96.808C72.8498 97.3093 73.3244 98.0293 73.5698 98.968H71.6018C71.4418 98.5307 71.1858 98.1893 70.8338 97.944C70.4818 97.6987 70.0391 97.576 69.5058 97.576C68.7591 97.576 68.1618 97.8427 67.7138 98.376C67.2764 98.8987 67.0578 99.6347 67.0578 100.584C67.0578 101.533 67.2764 102.275 67.7138 102.808C68.1618 103.341 68.7591 103.608 69.5058 103.608C70.5618 103.608 71.2604 103.144 71.6018 102.216H73.5698C73.3138 103.112 72.8338 103.827 72.1298 104.36C71.4258 104.883 70.5511 105.144 69.5058 105.144C68.6631 105.144 67.9164 104.957 67.2658 104.584C66.6151 104.2 66.1031 103.667 65.7298 102.984C65.3671 102.291 65.1858 101.491 65.1858 100.584ZM77.2115 97.464C77.4782 97.016 77.8302 96.6693 78.2675 96.424C78.7155 96.168 79.2435 96.04 79.8515 96.04V97.928H79.3875C78.6728 97.928 78.1288 98.1093 77.7555 98.472C77.3928 98.8347 77.2115 99.464 77.2115 100.36V105H75.3875V96.184H77.2115V97.464ZM82.4561 95.016C82.1255 95.016 81.8481 94.904 81.6241 94.68C81.4001 94.456 81.2881 94.1787 81.2881 93.848C81.2881 93.5173 81.4001 93.24 81.6241 93.016C81.8481 92.792 82.1255 92.68 82.4561 92.68C82.7761 92.68 83.0481 92.792 83.2721 93.016C83.4961 93.24 83.6081 93.5173 83.6081 93.848C83.6081 94.1787 83.4961 94.456 83.2721 94.68C83.0481 94.904 82.7761 95.016 82.4561 95.016ZM83.3521 96.184V105H81.5281V96.184H83.3521ZM87.5709 97.48C87.8802 97.0747 88.3015 96.7333 88.8349 96.456C89.3682 96.1787 89.9709 96.04 90.6429 96.04C91.4109 96.04 92.1095 96.232 92.7389 96.616C93.3789 96.9893 93.8802 97.5173 94.2429 98.2C94.6055 98.8827 94.7869 99.6667 94.7869 100.552C94.7869 101.437 94.6055 102.232 94.2429 102.936C93.8802 103.629 93.3789 104.173 92.7389 104.568C92.1095 104.952 91.4109 105.144 90.6429 105.144C89.9709 105.144 89.3735 105.011 88.8509 104.744C88.3282 104.467 87.9015 104.125 87.5709 103.72V109.192H85.7469V96.184H87.5709V97.48ZM92.9309 100.552C92.9309 99.944 92.8029 99.4213 92.5469 98.984C92.3015 98.536 91.9709 98.2 91.5549 97.976C91.1495 97.7413 90.7122 97.624 90.2429 97.624C89.7842 97.624 89.3469 97.7413 88.9309 97.976C88.5255 98.2107 88.1949 98.552 87.9389 99C87.6935 99.448 87.5709 99.976 87.5709 100.584C87.5709 101.192 87.6935 101.725 87.9389 102.184C88.1949 102.632 88.5255 102.973 88.9309 103.208C89.3469 103.443 89.7842 103.56 90.2429 103.56C90.7122 103.56 91.1495 103.443 91.5549 103.208C91.9709 102.963 92.3015 102.611 92.5469 102.152C92.8029 101.693 92.9309 101.16 92.9309 100.552ZM98.7186 97.672V102.552C98.7186 102.883 98.7933 103.123 98.9426 103.272C99.1026 103.411 99.3693 103.48 99.7426 103.48H100.863V105H99.4226C98.6013 105 97.972 104.808 97.5346 104.424C97.0973 104.04 96.8786 103.416 96.8786 102.552V97.672H95.8386V96.184H96.8786V93.992H98.7186V96.184H100.863V97.672H98.7186Z" fill="black"/>
<defs>
<clipPath id="clip0_29_61">
<rect width="69" height="68" fill="white" transform="translate(23 14)"/>
</clipPath>
</defs>
</svg>
