<svg width="112" height="117" viewBox="0 0 112 117" fill="none" xmlns="http://www.w3.org/2000/svg">
<rect width="112" height="117" rx="8" fill="#D9D9D9"/>
<g clip-path="url(#clip0_29_55)">
<path d="M75.7766 36.9857L75.7443 36.9744C75.7246 36.9696 75.7065 36.9613 75.6914 36.95C75.665 36.9268 75.6455 36.899 75.6344 36.8688C75.6232 36.8385 75.6207 36.8065 75.6271 36.7753L77.4033 27.901L85.732 34.7098L77.0702 37.7217C77.0461 37.7296 77.0204 37.7334 76.9945 37.733H76.9598C76.9429 37.7239 76.9274 37.7131 76.9137 37.7009C76.5914 37.4076 76.2059 37.1652 75.7766 36.9857V36.9857ZM87.8574 36.4448L96.7626 43.723C98.6119 45.2364 99.5383 45.9913 99.8759 46.8666C99.9264 46.9959 99.9677 47.1256 100 47.2589L78.7174 39.8924C78.706 39.8885 78.6945 39.8848 78.683 39.8812C78.5978 39.853 78.4991 39.821 78.4991 39.7498C78.4991 39.6784 78.6002 39.6446 78.6851 39.6165L78.7126 39.6069L87.8574 36.4448ZM99.637 49.595C99.1774 50.3009 98.2813 51.0333 96.765 52.2744L86.7244 60.4785L73.7385 58.2684L73.6698 58.2572C73.5546 58.242 73.4329 58.2251 73.4329 58.1407C73.3835 57.7028 73.2244 57.2779 72.9655 56.8925C72.7066 56.5071 72.3534 56.1694 71.928 55.9006C71.8751 55.8573 71.8892 55.7898 71.905 55.7276C71.905 55.7183 71.905 55.7091 71.9098 55.7015L74.3521 43.4471L74.3611 43.4058C74.3748 43.3118 74.3954 43.203 74.4989 43.203C75.0222 43.1499 75.5274 43.0121 75.985 42.7977C76.4426 42.5833 76.8435 42.2966 77.1643 41.9542C77.185 41.9354 77.1987 41.9149 77.2262 41.9036C77.2998 41.8755 77.3871 41.9036 77.4631 41.9298L99.6349 49.595H99.637V49.595ZM84.4158 62.3657L67.9051 75.8595L70.7307 61.6634L70.7355 61.6446C70.7377 61.6261 70.7423 61.6079 70.7493 61.5903C70.7723 61.5453 70.8318 61.5264 70.8895 61.5076L70.917 61.498C71.5358 61.2823 72.083 60.9496 72.5141 60.5274C72.5691 60.4748 72.6358 60.4239 72.7207 60.4146C72.7427 60.4118 72.7654 60.4118 72.7874 60.4146L84.413 62.3676L84.4154 62.3657H84.4158ZM64.4102 78.7156L62.5491 80.2366L41.9743 55.9343C41.9669 55.9254 41.9592 55.9166 41.9513 55.9079C41.9193 55.8722 41.8846 55.8367 41.8918 55.7954C41.8939 55.7653 41.9169 55.7391 41.9423 55.7166L41.965 55.6922C42.0269 55.6168 42.0802 55.5417 42.1376 55.461L42.1833 55.3955L42.1902 55.3898C42.2225 55.3448 42.2521 55.3015 42.3074 55.2771C42.3555 55.2582 42.4226 55.2658 42.4752 55.2751L65.2696 59.117C65.3335 59.1254 65.3933 59.1465 65.4442 59.1788C65.4741 59.2036 65.481 59.2297 65.4878 59.2598C65.647 59.7517 65.9431 60.2067 66.3528 60.5895C66.7625 60.9722 67.2748 61.2723 67.8498 61.4662C67.914 61.4924 67.8865 61.5506 67.8566 61.6125C67.8417 61.6397 67.8302 61.6681 67.8222 61.6971C67.5352 63.1242 65.0723 75.4013 64.4102 78.7156V78.7156ZM60.5227 81.8909C59.1512 83.0007 58.3423 83.5882 57.4279 83.8251C56.5263 84.058 55.5589 84.058 54.6573 83.8251C53.5865 83.5469 52.6605 82.7923 50.8107 81.2786L30.1486 64.3918L35.5455 57.551C35.5684 57.5166 35.5997 57.4865 35.6376 57.4626C35.695 57.4289 35.7779 57.4441 35.8466 57.4626C37.0854 57.7681 38.4152 57.713 39.61 57.3068C39.6719 57.2883 39.7341 57.2751 39.7826 57.3108C39.8066 57.3288 39.8283 57.3487 39.8468 57.3707L60.5227 81.8929V81.8909V81.8909ZM28.1566 62.7636L23.4166 58.89L32.7769 55.6264C32.8009 55.6178 32.8268 55.6133 32.8529 55.6131C32.9309 55.6131 32.977 55.677 33.0183 55.7352C33.1124 55.8533 33.2121 55.9686 33.3173 56.0809L33.3469 56.1107C33.3744 56.1427 33.3562 56.1745 33.3287 56.2046L28.1587 62.7636H28.1566ZM21.3191 57.1755L15.3223 52.2744C14.3021 51.4408 13.5623 50.8361 13.0478 50.3161L31.2813 53.407L31.35 53.4163C31.4628 53.4312 31.5872 53.4481 31.5872 53.5344C31.5872 53.6284 31.4514 53.6717 31.3363 53.7071L31.2837 53.726L21.3191 57.1755V57.1755ZM12 47.7958C12.0209 47.4802 12.0904 47.1679 12.2069 46.8666C12.5469 45.9913 13.4706 45.2364 15.3223 43.723L22.9962 37.4512C26.5296 41.6422 30.0725 45.8279 33.625 50.0081C33.6868 50.0756 33.7556 50.1507 33.6848 50.207C33.3493 50.5093 33.0138 50.8398 32.7773 51.1986C32.7515 51.2445 32.712 51.2847 32.6621 51.3148C32.6322 51.33 32.6002 51.3244 32.5659 51.3187H32.5611L12 47.7941V47.7961V47.7958ZM25.0505 35.7724L35.3688 27.3394C36.3382 27.6867 39.8675 28.9054 43.0241 29.9944C45.4139 30.821 47.5919 31.5722 48.2766 31.816C48.3454 31.8385 48.4076 31.861 48.4375 31.9173C48.4557 31.951 48.4468 31.9943 48.4375 32.0301C48.2742 32.6389 48.2985 33.2714 48.5083 33.8706C48.7181 34.4698 49.1067 35.017 49.6393 35.4627C49.708 35.519 49.6392 35.5997 49.5794 35.6691L49.5471 35.7085L39.0703 48.9714C39.0428 49.0091 39.0174 49.0409 38.9713 49.0654C38.9163 49.0935 38.8383 49.0803 38.7737 49.0673C38.3662 48.9801 37.9473 48.9334 37.5262 48.9284C37.1494 48.9284 36.7404 48.9846 36.3268 49.0465H36.3244C36.2787 49.0521 36.2371 49.0597 36.2007 49.0372C36.1601 49.0102 36.1251 48.9779 36.0972 48.9416L25.0505 35.7724ZM37.453 25.6361L50.8111 14.7188C52.6605 13.2071 53.5865 12.4506 54.657 12.1744C55.5587 11.9413 56.5262 11.9413 57.4279 12.1744C58.4987 12.4506 59.4244 13.2071 61.2742 14.7188L64.1692 17.085L54.6687 29.1101C54.6451 29.1451 54.6131 29.1757 54.5745 29.2001C54.5171 29.2322 54.4366 29.219 54.3675 29.2001C53.6185 29.0143 52.8255 28.9805 52.0569 29.1016C51.2883 29.2227 50.5673 29.495 49.9562 29.8951C49.8943 29.9477 49.8022 29.9176 49.7242 29.8895C48.4832 29.4482 38.8335 26.1151 37.4526 25.6364L37.453 25.6361ZM66.1863 18.7337L74.9588 25.9027L72.8448 36.6026V36.6307C72.843 36.6552 72.8368 36.6792 72.8266 36.7022C72.8035 36.7396 72.7575 36.7472 72.7114 36.7584C72.2596 36.8703 71.8341 37.0437 71.4526 37.2711C71.4362 37.2807 71.4208 37.2913 71.4065 37.3029C71.3811 37.3254 71.356 37.3462 71.3148 37.3499C71.281 37.3507 71.2474 37.3463 71.2158 37.3367L57.8483 32.6949L57.8233 32.6854C57.738 32.6572 57.6369 32.6235 57.6369 32.5521C57.5583 31.9432 57.315 31.3563 56.9247 30.8339C56.8604 30.7476 56.7892 30.6576 56.8442 30.5692L66.1863 18.7337V18.7337ZM57.1523 34.8935L69.6833 39.2312C69.7521 39.2573 69.828 39.2818 69.8579 39.34C69.8699 39.375 69.8699 39.4119 69.8579 39.4469C69.8212 39.5974 69.7892 39.7681 69.7892 39.9411V40.2282C69.7892 40.2996 69.6995 40.3295 69.6166 40.3576L69.5915 40.3652C67.6064 41.0582 41.7217 50.079 41.6825 50.079C41.6436 50.079 41.602 50.079 41.5632 50.0472C41.4944 49.991 41.5632 49.9122 41.6251 49.8405L41.6574 49.8031L51.9551 36.7714L51.9733 36.7489C52.0331 36.6698 52.1022 36.5815 52.2126 36.5815L52.3157 36.5947C52.5501 36.6209 52.7571 36.6454 52.9661 36.6454C54.5284 36.6454 55.9759 36.0238 56.8491 34.961C56.8697 34.9328 56.8962 34.9075 56.9271 34.8859C56.989 34.8485 57.0811 34.8673 57.1523 34.8935V34.8935ZM42.8014 52.1408L71.016 42.3069C71.016 42.3069 71.0573 42.3069 71.0965 42.339C71.2501 42.4647 71.3811 42.5491 71.5076 42.6281L71.5695 42.6599C71.6272 42.6863 71.6846 42.7161 71.6891 42.7651C71.6891 42.7839 71.6891 42.7952 71.6846 42.8121L69.2674 54.9463L69.2581 54.9952C69.2423 55.0889 69.2261 55.1961 69.1182 55.1961C68.474 55.2315 67.8501 55.3948 67.3004 55.672C66.7507 55.9491 66.2919 56.3317 65.9636 56.7865L65.9519 56.8014C65.9199 56.8447 65.89 56.8858 65.8371 56.9083C65.789 56.9274 65.7271 56.9198 65.6762 56.9106L43.1761 53.1173C43.153 53.1137 42.8268 52.1428 42.8014 52.1408V52.1408Z" fill="url(#paint0_radial_29_55)"/>
</g>
<path d="M43.336 105H41.512L36.024 96.696V105H34.2V93.864H36.024L41.512 102.152V93.864H43.336V105ZM53.8113 100.376C53.8113 100.707 53.7899 101.005 53.7473 101.272H47.0113C47.0646 101.976 47.3259 102.541 47.7953 102.968C48.2646 103.395 48.8406 103.608 49.5233 103.608C50.5046 103.608 51.1979 103.197 51.6033 102.376H53.5712C53.3046 103.187 52.8193 103.853 52.1153 104.376C51.4219 104.888 50.5579 105.144 49.5233 105.144C48.6806 105.144 47.9233 104.957 47.2513 104.584C46.5899 104.2 46.0673 103.667 45.6833 102.984C45.3099 102.291 45.1233 101.491 45.1233 100.584C45.1233 99.6773 45.3046 98.8827 45.6673 98.2C46.0406 97.5067 46.5579 96.9733 47.2193 96.6C47.8913 96.2267 48.6593 96.04 49.5233 96.04C50.3553 96.04 51.0966 96.2213 51.7473 96.584C52.3979 96.9467 52.9046 97.4587 53.2673 98.12C53.6299 98.7707 53.8113 99.5227 53.8113 100.376ZM51.9073 99.8C51.8966 99.128 51.6566 98.5893 51.1873 98.184C50.7179 97.7787 50.1366 97.576 49.4433 97.576C48.8139 97.576 48.2753 97.7787 47.8273 98.184C47.3793 98.5787 47.1126 99.1173 47.0273 99.8H51.9073ZM57.7343 97.672V102.552C57.7343 102.883 57.8089 103.123 57.9583 103.272C58.1183 103.411 58.3849 103.48 58.7583 103.48H59.8783V105H58.4383C57.6169 105 56.9876 104.808 56.5503 104.424C56.1129 104.04 55.8943 103.416 55.8943 102.552V97.672H54.8543V96.184H55.8943V93.992H57.7343V96.184H59.8783V97.672H57.7343ZM63.3834 93.16V105H61.5594V93.16H63.3834ZM66.7061 95.016C66.3755 95.016 66.0981 94.904 65.8741 94.68C65.6501 94.456 65.5381 94.1787 65.5381 93.848C65.5381 93.5173 65.6501 93.24 65.8741 93.016C66.0981 92.792 66.3755 92.68 66.7061 92.68C67.0261 92.68 67.2981 92.792 67.5221 93.016C67.7461 93.24 67.8581 93.5173 67.8581 93.848C67.8581 94.1787 67.7461 94.456 67.5221 94.68C67.2981 94.904 67.0261 95.016 66.7061 95.016ZM67.6021 96.184V105H65.7781V96.184H67.6021ZM73.6929 97.672H72.0609V105H70.2209V97.672H69.1809V96.184H70.2209V95.56C70.2209 94.5467 70.4875 93.8107 71.0209 93.352C71.5649 92.8827 72.4129 92.648 73.5649 92.648V94.168C73.0102 94.168 72.6209 94.2747 72.3969 94.488C72.1729 94.6907 72.0609 95.048 72.0609 95.56V96.184H73.6929V97.672ZM83.2454 96.184L77.8374 109.144H75.9494L77.7414 104.856L74.2694 96.184H76.3014L78.7814 102.904L81.3574 96.184H83.2454Z" fill="black"/>
<defs>
<radialGradient id="paint0_radial_29_55" cx="0" cy="0" r="1" gradientUnits="userSpaceOnUse" gradientTransform="translate(56 -24.0005) scale(88 72.0002)">
<stop stop-color="#20C6B7"/>
<stop offset="1" stop-color="#4D9ABF"/>
</radialGradient>
<clipPath id="clip0_29_55">
<rect width="88" height="72" fill="white" transform="translate(12 12)"/>
</clipPath>
</defs>
</svg>
