<svg width="112" height="117" viewBox="0 0 112 117" fill="none" xmlns="http://www.w3.org/2000/svg">
<rect width="112" height="117" rx="8" fill="#D9D9D9"/>
<g clip-path="url(#clip0_29_57)">
<path d="M75.707 12H34.293C28.6083 12 24 16.8711 24 22.88V65.0176C24 71.0265 28.6083 75.8976 34.293 75.8976H75.707C81.3917 75.8976 86 71.0265 86 65.0176V22.88C86 16.8711 81.3917 12 75.707 12Z" fill="#001E36"/>
<path d="M37.9607 56.809V28.716C37.9607 28.5112 38.044 28.4083 38.2104 28.4083L38.4736 28.4076L38.9236 28.4024L39.549 28.3894L41.6439 28.3425L43.8902 28.2985C44.6802 28.2842 45.4634 28.2765 46.2399 28.2765C48.3469 28.2765 50.1214 28.555 51.5636 29.1118C52.8646 29.577 54.051 30.3429 55.0366 31.3539C55.8721 32.2302 56.5178 33.2878 56.9291 34.4535C57.3181 35.5879 57.5153 36.7858 57.5115 37.9925C57.5115 40.3377 56.9983 42.272 55.9724 43.7957C54.969 45.2822 53.5694 46.4191 51.9521 47.0613L51.8133 47.115C50.1246 47.7809 48.2544 48.0215 46.2033 48.0366L45.8846 48.0376L45.4116 48.0351L45.173 48.0315L44.9071 48.0248L44.7468 48.0182L44.6494 48.0128L44.4099 48.0036L44.1171 47.9972L43.6763 47.9939L43.5782 47.9936V56.7649C43.5855 56.8187 43.5809 56.8735 43.5646 56.9251C43.5484 56.9766 43.521 57.0234 43.4847 57.0618C43.4483 57.1002 43.404 57.1292 43.3553 57.1463C43.3065 57.1635 43.2547 57.1684 43.2038 57.1607H38.252C38.0576 57.1607 37.9607 57.044 37.9607 56.809V56.809ZM43.5785 33.684V42.8467C43.9104 42.875 44.2433 42.8897 44.5763 42.8908H45.949C46.8954 42.8874 47.8363 42.7385 48.7422 42.4487L48.9228 42.389C49.7469 42.1303 50.4832 41.6266 51.0441 40.938C51.5653 40.2883 51.8354 39.393 51.854 38.252L51.8552 38.1243C51.877 37.2739 51.6678 36.4347 51.2519 35.7064C50.8149 35.002 50.1832 34.457 49.4428 34.1455C48.476 33.7483 47.4433 33.5615 46.4065 33.5962L45.879 33.5977L45.5462 33.6008L45.2287 33.6051L44.7807 33.6143L44.4537 33.6241L44.284 33.6307L44.057 33.642L43.8638 33.6545L43.7536 33.6638L43.6584 33.6735L43.6165 33.6786L43.5785 33.684V33.684ZM73.5928 41.1807C72.8672 40.7866 72.0976 40.4905 71.3022 40.2995L71.1181 40.2575C70.243 40.0453 69.3495 39.9284 68.4519 39.9086L68.2276 39.9058C67.7013 39.8907 67.1758 39.9574 66.6679 40.1037C66.3445 40.1797 66.0571 40.3743 65.8566 40.6531C65.721 40.8761 65.6489 41.1355 65.6488 41.4006C65.6564 41.6576 65.7441 41.9049 65.8982 42.1038C66.119 42.3767 66.3844 42.6054 66.6817 42.7789L66.7718 42.8293C67.3648 43.1668 67.9758 43.4677 68.6018 43.7304C69.9976 44.2244 71.3314 44.8961 72.5736 45.7308C73.42 46.2955 74.1204 47.0735 74.6119 47.9951C75.0251 48.8677 75.232 49.833 75.2149 50.8086C75.2398 52.097 74.8915 53.3626 74.2166 54.4358C73.4942 55.5251 72.4908 56.372 71.3259 56.8755C70.106 57.4423 68.6078 57.7349 66.8316 57.7541L66.6471 57.7551C65.546 57.7669 64.4464 57.6651 63.364 57.451L63.1325 57.4034C62.2211 57.2267 61.334 56.9314 60.4914 56.524C60.4067 56.4778 60.3352 56.4087 60.284 56.3237C60.2329 56.2387 60.204 56.1409 60.2003 56.0402V51.2484C60.1953 51.2019 60.2024 51.1548 60.2207 51.1122C60.239 51.0696 60.268 51.0331 60.3044 51.0065C60.3401 50.9851 60.3811 50.9758 60.422 50.9798C60.4628 50.9837 60.5016 51.0007 60.5331 51.0285C61.5281 51.6487 62.6086 52.1011 63.7355 52.3694C64.7289 52.6326 65.7478 52.7729 66.7718 52.7872C67.742 52.7872 68.456 52.6551 68.9137 52.3914C69.1204 52.2914 69.2952 52.1302 69.417 51.9274C69.5389 51.7245 69.6024 51.4887 69.6001 51.2484C69.6001 50.868 69.392 50.5014 68.9762 50.1494C68.8018 50.0019 68.5516 49.8414 68.2261 49.6681L68.0704 49.5872L67.9043 49.5045L67.8171 49.4625L67.6345 49.377C67.6028 49.3624 67.5711 49.3479 67.5393 49.3335L67.3407 49.2455L67.2373 49.2007L67.0227 49.1098L66.9113 49.0637L66.6805 48.9697L66.439 48.8742C65.133 48.3938 63.8947 47.7283 62.758 46.8959C61.9451 46.2982 61.2757 45.5078 60.8033 44.5878C60.3943 43.7215 60.1875 42.7642 60.2003 41.7961C60.198 40.6329 60.5002 39.4917 61.0736 38.4988C61.7275 37.4057 62.6662 36.5353 63.7772 35.9931C64.9971 35.3487 66.5219 35.0262 68.3521 35.0257C69.424 35.0166 70.4949 35.0975 71.5548 35.2676C72.3222 35.3705 73.0725 35.585 73.7843 35.905C73.8989 35.9398 73.9912 36.0292 74.0338 36.147C74.0621 36.2542 74.0759 36.3651 74.0755 36.4767V40.917C74.0815 41.022 74.0338 41.1226 73.9507 41.1807C73.8951 41.2099 73.8339 41.2251 73.7717 41.2251C73.7096 41.2251 73.6484 41.2099 73.5928 41.1807V41.1807Z" fill="#31A8FF"/>
</g>
<path d="M23.976 95.192C23.976 95.7573 23.8427 96.2907 23.576 96.792C23.3093 97.2933 22.8827 97.704 22.296 98.024C21.7093 98.3333 20.9573 98.488 20.04 98.488H18.024V103H16.2V91.88H20.04C20.8933 91.88 21.6133 92.0293 22.2 92.328C22.7973 92.616 23.24 93.0107 23.528 93.512C23.8267 94.0133 23.976 94.5733 23.976 95.192ZM20.04 97C20.7333 97 21.2507 96.8453 21.592 96.536C21.9333 96.216 22.104 95.768 22.104 95.192C22.104 93.976 21.416 93.368 20.04 93.368H18.024V97H20.04ZM30.2756 94.04C30.9476 94.04 31.545 94.184 32.0676 94.472C32.601 94.76 33.017 95.1867 33.3156 95.752C33.625 96.3173 33.7796 97 33.7796 97.8V103H31.9716V98.072C31.9716 97.2827 31.7743 96.68 31.3796 96.264C30.985 95.8373 30.4463 95.624 29.7636 95.624C29.081 95.624 28.537 95.8373 28.1316 96.264C27.737 96.68 27.5396 97.2827 27.5396 98.072V103H25.7156V91.16H27.5396V95.208C27.849 94.8347 28.2383 94.5467 28.7076 94.344C29.1876 94.1413 29.7103 94.04 30.2756 94.04ZM39.9303 103.144C39.0983 103.144 38.3463 102.957 37.6743 102.584C37.0023 102.2 36.4743 101.667 36.0903 100.984C35.7063 100.291 35.5143 99.4907 35.5143 98.584C35.5143 97.688 35.7116 96.8933 36.1063 96.2C36.5009 95.5067 37.0396 94.9733 37.7223 94.6C38.4049 94.2267 39.1676 94.04 40.0103 94.04C40.8529 94.04 41.6156 94.2267 42.2983 94.6C42.9809 94.9733 43.5196 95.5067 43.9143 96.2C44.3089 96.8933 44.5063 97.688 44.5063 98.584C44.5063 99.48 44.3036 100.275 43.8983 100.968C43.4929 101.661 42.9383 102.2 42.2343 102.584C41.5409 102.957 40.7729 103.144 39.9303 103.144ZM39.9303 101.56C40.3996 101.56 40.8369 101.448 41.2423 101.224C41.6583 101 41.9943 100.664 42.2503 100.216C42.5063 99.768 42.6343 99.224 42.6343 98.584C42.6343 97.944 42.5116 97.4053 42.2663 96.968C42.0209 96.52 41.6956 96.184 41.2903 95.96C40.8849 95.736 40.4476 95.624 39.9783 95.624C39.5089 95.624 39.0716 95.736 38.6663 95.96C38.2716 96.184 37.9569 96.52 37.7223 96.968C37.4876 97.4053 37.3703 97.944 37.3703 98.584C37.3703 99.5333 37.6103 100.269 38.0903 100.792C38.5809 101.304 39.1943 101.56 39.9303 101.56ZM48.4374 95.672V100.552C48.4374 100.883 48.512 101.123 48.6614 101.272C48.8214 101.411 49.088 101.48 49.4614 101.48H50.5814V103H49.1414C48.32 103 47.6907 102.808 47.2534 102.424C46.816 102.04 46.5974 101.416 46.5974 100.552V95.672H45.5574V94.184H46.5974V91.992H48.4374V94.184H50.5814V95.672H48.4374ZM56.0865 103.144C55.2545 103.144 54.5025 102.957 53.8305 102.584C53.1585 102.2 52.6305 101.667 52.2465 100.984C51.8625 100.291 51.6705 99.4907 51.6705 98.584C51.6705 97.688 51.8678 96.8933 52.2625 96.2C52.6572 95.5067 53.1958 94.9733 53.8785 94.6C54.5612 94.2267 55.3238 94.04 56.1665 94.04C57.0092 94.04 57.7718 94.2267 58.4545 94.6C59.1372 94.9733 59.6758 95.5067 60.0705 96.2C60.4652 96.8933 60.6625 97.688 60.6625 98.584C60.6625 99.48 60.4598 100.275 60.0545 100.968C59.6492 101.661 59.0945 102.2 58.3905 102.584C57.6972 102.957 56.9292 103.144 56.0865 103.144ZM56.0865 101.56C56.5558 101.56 56.9932 101.448 57.3985 101.224C57.8145 101 58.1505 100.664 58.4065 100.216C58.6625 99.768 58.7905 99.224 58.7905 98.584C58.7905 97.944 58.6678 97.4053 58.4225 96.968C58.1772 96.52 57.8518 96.184 57.4465 95.96C57.0412 95.736 56.6038 95.624 56.1345 95.624C55.6652 95.624 55.2278 95.736 54.8225 95.96C54.4278 96.184 54.1132 96.52 53.8785 96.968C53.6438 97.4053 53.5265 97.944 53.5265 98.584C53.5265 99.5333 53.7665 100.269 54.2465 100.792C54.7372 101.304 55.3505 101.56 56.0865 101.56ZM66.1296 103.112C65.383 103.112 64.711 102.984 64.1136 102.728C63.5163 102.461 63.047 102.088 62.7056 101.608C62.3643 101.128 62.1936 100.568 62.1936 99.928H64.1456C64.1883 100.408 64.375 100.803 64.7056 101.112C65.047 101.421 65.5216 101.576 66.1296 101.576C66.759 101.576 67.2496 101.427 67.6016 101.128C67.9536 100.819 68.1296 100.424 68.1296 99.944C68.1296 99.5707 68.0176 99.2667 67.7936 99.032C67.5803 98.7973 67.3083 98.616 66.9776 98.488C66.6576 98.36 66.2096 98.2213 65.6336 98.072C64.9083 97.88 64.3163 97.688 63.8576 97.496C63.4096 97.2933 63.0256 96.984 62.7056 96.568C62.3856 96.152 62.2256 95.5973 62.2256 94.904C62.2256 94.264 62.3856 93.704 62.7056 93.224C63.0256 92.744 63.4736 92.376 64.0496 92.12C64.6256 91.864 65.2923 91.736 66.0496 91.736C67.127 91.736 68.007 92.008 68.6896 92.552C69.383 93.0853 69.767 93.8213 69.8416 94.76H67.8256C67.7936 94.3547 67.6016 94.008 67.2496 93.72C66.8976 93.432 66.4336 93.288 65.8576 93.288C65.335 93.288 64.9083 93.4213 64.5776 93.688C64.247 93.9547 64.0816 94.3387 64.0816 94.84C64.0816 95.1813 64.183 95.464 64.3856 95.688C64.599 95.9013 64.8656 96.072 65.1856 96.2C65.5056 96.328 65.943 96.4667 66.4976 96.616C67.2336 96.8187 67.831 97.0213 68.2896 97.224C68.759 97.4267 69.1536 97.7413 69.4736 98.168C69.8043 98.584 69.9696 99.144 69.9696 99.848C69.9696 100.413 69.815 100.947 69.5056 101.448C69.207 101.949 68.7643 102.355 68.1776 102.664C67.6016 102.963 66.919 103.112 66.1296 103.112ZM76.6819 94.04C77.3539 94.04 77.9512 94.184 78.4739 94.472C79.0072 94.76 79.4232 95.1867 79.7219 95.752C80.0312 96.3173 80.1859 97 80.1859 97.8V103H78.3779V98.072C78.3779 97.2827 78.1805 96.68 77.7859 96.264C77.3912 95.8373 76.8525 95.624 76.1699 95.624C75.4872 95.624 74.9432 95.8373 74.5379 96.264C74.1432 96.68 73.9459 97.2827 73.9459 98.072V103H72.1219V91.16H73.9459V95.208C74.2552 94.8347 74.6445 94.5467 75.1139 94.344C75.5939 94.1413 76.1165 94.04 76.6819 94.04ZM86.3365 103.144C85.5045 103.144 84.7525 102.957 84.0805 102.584C83.4085 102.2 82.8805 101.667 82.4965 100.984C82.1125 100.291 81.9205 99.4907 81.9205 98.584C81.9205 97.688 82.1178 96.8933 82.5125 96.2C82.9072 95.5067 83.4458 94.9733 84.1285 94.6C84.8112 94.2267 85.5738 94.04 86.4165 94.04C87.2592 94.04 88.0218 94.2267 88.7045 94.6C89.3872 94.9733 89.9258 95.5067 90.3205 96.2C90.7152 96.8933 90.9125 97.688 90.9125 98.584C90.9125 99.48 90.7098 100.275 90.3045 100.968C89.8992 101.661 89.3445 102.2 88.6405 102.584C87.9472 102.957 87.1792 103.144 86.3365 103.144ZM86.3365 101.56C86.8058 101.56 87.2432 101.448 87.6485 101.224C88.0645 101 88.4005 100.664 88.6565 100.216C88.9125 99.768 89.0405 99.224 89.0405 98.584C89.0405 97.944 88.9178 97.4053 88.6725 96.968C88.4272 96.52 88.1018 96.184 87.6965 95.96C87.2912 95.736 86.8538 95.624 86.3845 95.624C85.9152 95.624 85.4778 95.736 85.0725 95.96C84.6778 96.184 84.3632 96.52 84.1285 96.968C83.8938 97.4053 83.7765 97.944 83.7765 98.584C83.7765 99.5333 84.0165 100.269 84.4965 100.792C84.9872 101.304 85.6005 101.56 86.3365 101.56ZM94.5396 95.48C94.849 95.0747 95.2703 94.7333 95.8036 94.456C96.337 94.1787 96.9396 94.04 97.6116 94.04C98.3796 94.04 99.0783 94.232 99.7076 94.616C100.348 94.9893 100.849 95.5173 101.212 96.2C101.574 96.8827 101.756 97.6667 101.756 98.552C101.756 99.4373 101.574 100.232 101.212 100.936C100.849 101.629 100.348 102.173 99.7076 102.568C99.0783 102.952 98.3796 103.144 97.6116 103.144C96.9396 103.144 96.3423 103.011 95.8196 102.744C95.297 102.467 94.8703 102.125 94.5396 101.72V107.192H92.7156V94.184H94.5396V95.48ZM99.8996 98.552C99.8996 97.944 99.7716 97.4213 99.5156 96.984C99.2703 96.536 98.9396 96.2 98.5236 95.976C98.1183 95.7413 97.681 95.624 97.2116 95.624C96.753 95.624 96.3156 95.7413 95.8996 95.976C95.4943 96.2107 95.1636 96.552 94.9076 97C94.6623 97.448 94.5396 97.976 94.5396 98.584C94.5396 99.192 94.6623 99.7253 94.9076 100.184C95.1636 100.632 95.4943 100.973 95.8996 101.208C96.3156 101.443 96.753 101.56 97.2116 101.56C97.681 101.56 98.1183 101.443 98.5236 101.208C98.9396 100.963 99.2703 100.611 99.5156 100.152C99.7716 99.6933 99.8996 99.16 99.8996 98.552Z" fill="black"/>
<defs>
<clipPath id="clip0_29_57">
<rect width="62" height="64" fill="white" transform="translate(24 12)"/>
</clipPath>
</defs>
</svg>
