<svg width="112" height="117" viewBox="0 0 112 117" fill="none" xmlns="http://www.w3.org/2000/svg">
<rect width="112" height="117" rx="8" fill="#D9D9D9"/>
<path opacity="0.25" d="M56.0001 16.6667C49.8029 16.6667 43.745 18.5043 38.5922 21.9473C33.4395 25.3902 29.4234 30.2838 27.0519 36.0092C24.6803 41.7347 24.0598 48.0347 25.2688 54.1128C26.4778 60.1909 29.462 65.774 33.8441 70.156C38.2261 74.538 43.8092 77.5223 49.8873 78.7313C55.9653 79.9403 62.2654 79.3198 67.9908 76.9482C73.7163 74.5767 78.6099 70.5606 82.0528 65.4079C85.4958 60.2551 87.3334 54.1971 87.3334 48C87.3334 39.6899 84.0322 31.7201 78.1561 25.844C72.28 19.9678 64.3102 16.6667 56.0001 16.6667V16.6667Z" fill="black"/>
<path d="M56.4866 50.43L48.1533 74.6467C53.7488 76.294 59.7208 76.1389 65.2233 74.2033C65.1456 74.0816 65.0787 73.9534 65.0233 73.82L56.4866 50.43ZM28.22 47.9967C28.2193 53.2138 29.6879 58.3257 32.4574 62.7471C35.2269 67.1684 39.1855 70.7205 43.88 72.9967L30.6266 36.7C29.0393 40.2556 28.2203 44.1062 28.2233 48L28.22 47.9967Z" fill="black"/>
<path d="M74.7534 46.6C74.7167 43.8824 73.9237 41.2288 72.4634 38.9367C70.9702 37.0588 70.0254 34.8046 69.7334 32.4233C69.7002 31.1509 70.1727 29.9172 71.0474 28.9925C71.9221 28.0678 73.1277 27.5275 74.4 27.49C74.5234 27.49 74.64 27.5067 74.7567 27.5133C71.791 24.7968 68.2707 22.7569 64.4391 21.5346C60.6075 20.3123 56.5562 19.9369 52.5653 20.4343C48.5744 20.9316 44.7391 22.2899 41.3247 24.4152C37.9103 26.5405 34.9983 29.382 32.79 32.7433C33.4434 32.7633 34.0567 32.7767 34.58 32.7767C37.4834 32.7767 41.98 32.4233 41.98 32.4233C42.2833 32.3995 42.5836 32.497 42.8149 32.6946C43.0462 32.8921 43.1895 33.1734 43.2134 33.4767C43.2372 33.7799 43.1397 34.0802 42.9421 34.3115C42.7446 34.5428 42.4633 34.6861 42.16 34.71C42.16 34.71 40.6534 34.8867 38.98 34.9767L49.0967 65.0633L55.1767 46.83L50.8467 34.9767C49.35 34.8867 47.9334 34.71 47.9334 34.71C47.6301 34.6866 47.3486 34.5436 47.1508 34.3127C46.9529 34.0817 46.8549 33.7816 46.8784 33.4783C46.9018 33.1751 47.0447 32.8936 47.2757 32.6957C47.5067 32.4979 47.8068 32.3999 48.11 32.4233C48.11 32.4233 52.6967 32.7767 55.4267 32.7767C58.33 32.7767 62.83 32.4233 62.83 32.4233C63.1333 32.3999 63.4334 32.4979 63.6644 32.6957C63.8954 32.8936 64.0383 33.1751 64.0617 33.4783C64.0851 33.7816 63.9871 34.0817 63.7893 34.3127C63.5914 34.5436 63.3099 34.6866 63.0067 34.71C63.0067 34.71 61.5 34.8867 59.83 34.9767L69.8667 64.8333L72.7334 55.7533C73.8525 52.8168 74.5331 49.7315 74.7534 46.5967V46.6Z" fill="black"/>
<path d="M56.0001 14.6667C49.4074 14.6667 42.9627 16.6216 37.4811 20.2843C31.9994 23.9471 27.727 29.153 25.2041 35.2439C22.6812 41.3347 22.0211 48.037 23.3073 54.503C24.5934 60.969 27.7681 66.9085 32.4299 71.5702C37.0916 76.232 43.0311 79.4067 49.4971 80.6928C55.9631 81.979 62.6653 81.3189 68.7562 78.796C74.8471 76.2731 80.053 72.0006 83.7157 66.519C87.3785 61.0374 89.3334 54.5927 89.3334 48C89.3334 43.6226 88.4712 39.2881 86.7961 35.2439C85.1209 31.1997 82.6656 27.5251 79.5703 24.4298C76.475 21.3345 72.8004 18.8792 68.7562 17.204C64.712 15.5288 60.3775 14.6667 56.0001 14.6667V14.6667ZM81.9834 65.5167C78.5827 70.5549 73.7937 74.4987 68.1968 76.87C63.3956 78.9021 58.1628 79.7024 52.9737 79.1983C47.7846 78.6941 42.8037 76.9015 38.4834 73.9833C33.4446 70.5824 29.4998 65.7935 27.1268 60.1967C25.0946 55.3953 24.2945 50.1623 24.7992 44.9731C25.3039 39.7839 27.0974 34.8031 30.0168 30.4833C33.417 25.4439 38.2061 21.4989 43.8034 19.1267C48.6049 17.0951 53.8379 16.2953 59.0269 16.8C64.216 17.3047 69.1968 19.0979 73.5168 22.0167C78.5556 25.4176 82.5004 30.2065 84.8734 35.8033C86.9056 40.6047 87.7057 45.8377 87.201 51.0269C86.6963 56.2161 84.9027 61.1969 81.9834 65.5167V65.5167Z" fill="black"/>
<path d="M80.5632 37.53C80.5151 40.9528 79.7972 44.3331 78.4499 47.48L69.9666 72.0067C76.2239 68.3668 80.8133 62.4282 82.7576 55.4553C84.7019 48.4823 83.8476 41.0258 80.3765 34.6733C80.5029 35.6203 80.5652 36.5747 80.5632 37.53V37.53Z" fill="black"/>
<path d="M29.68 93.88L26.384 105H24.32L21.984 96.584L19.504 105L17.456 105.016L14.304 93.88H16.24L18.544 102.936L21.04 93.88H23.088L25.408 102.888L27.728 93.88H29.68ZM35.0084 105.144C34.1764 105.144 33.4244 104.957 32.7524 104.584C32.0804 104.2 31.5524 103.667 31.1684 102.984C30.7844 102.291 30.5924 101.491 30.5924 100.584C30.5924 99.688 30.7897 98.8933 31.1844 98.2C31.579 97.5067 32.1177 96.9733 32.8004 96.6C33.483 96.2267 34.2457 96.04 35.0884 96.04C35.931 96.04 36.6937 96.2267 37.3764 96.6C38.059 96.9733 38.5977 97.5067 38.9924 98.2C39.387 98.8933 39.5844 99.688 39.5844 100.584C39.5844 101.48 39.3817 102.275 38.9764 102.968C38.571 103.661 38.0164 104.2 37.3124 104.584C36.619 104.957 35.851 105.144 35.0084 105.144ZM35.0084 103.56C35.4777 103.56 35.915 103.448 36.3204 103.224C36.7364 103 37.0724 102.664 37.3284 102.216C37.5844 101.768 37.7124 101.224 37.7124 100.584C37.7124 99.944 37.5897 99.4053 37.3444 98.968C37.099 98.52 36.7737 98.184 36.3684 97.96C35.963 97.736 35.5257 97.624 35.0564 97.624C34.587 97.624 34.1497 97.736 33.7444 97.96C33.3497 98.184 33.035 98.52 32.8004 98.968C32.5657 99.4053 32.4484 99.944 32.4484 100.584C32.4484 101.533 32.6884 102.269 33.1684 102.792C33.659 103.304 34.2724 103.56 35.0084 103.56ZM43.2115 97.464C43.4782 97.016 43.8302 96.6693 44.2675 96.424C44.7155 96.168 45.2435 96.04 45.8515 96.04V97.928H45.3875C44.6728 97.928 44.1288 98.1093 43.7555 98.472C43.3928 98.8347 43.2115 99.464 43.2115 100.36V105H41.3875V96.184H43.2115V97.464ZM46.9201 100.552C46.9201 99.6667 47.1015 98.8827 47.4641 98.2C47.8375 97.5173 48.3388 96.9893 48.9681 96.616C49.6081 96.232 50.3175 96.04 51.0961 96.04C51.6721 96.04 52.2375 96.168 52.7921 96.424C53.3575 96.6693 53.8055 97 54.1361 97.416V93.16H55.9761V105H54.1361V103.672C53.8375 104.099 53.4215 104.451 52.8881 104.728C52.3655 105.005 51.7628 105.144 51.0801 105.144C50.3121 105.144 49.6081 104.952 48.9681 104.568C48.3388 104.173 47.8375 103.629 47.4641 102.936C47.1015 102.232 46.9201 101.437 46.9201 100.552ZM54.1361 100.584C54.1361 99.976 54.0081 99.448 53.7521 99C53.5068 98.552 53.1815 98.2107 52.7761 97.976C52.3708 97.7413 51.9335 97.624 51.4641 97.624C50.9948 97.624 50.5575 97.7413 50.1521 97.976C49.7468 98.2 49.4161 98.536 49.1601 98.984C48.9148 99.4213 48.7921 99.944 48.7921 100.552C48.7921 101.16 48.9148 101.693 49.1601 102.152C49.4161 102.611 49.7468 102.963 50.1521 103.208C50.5681 103.443 51.0055 103.56 51.4641 103.56C51.9335 103.56 52.3708 103.443 52.7761 103.208C53.1815 102.973 53.5068 102.632 53.7521 102.184C54.0081 101.725 54.1361 101.192 54.1361 100.584ZM66.1479 97.192C66.1479 97.7573 66.0145 98.2907 65.7479 98.792C65.4812 99.2933 65.0545 99.704 64.4679 100.024C63.8812 100.333 63.1292 100.488 62.2119 100.488H60.1959V105H58.3719V93.88H62.2119C63.0652 93.88 63.7852 94.0293 64.3719 94.328C64.9692 94.616 65.4119 95.0107 65.6999 95.512C65.9985 96.0133 66.1479 96.5733 66.1479 97.192ZM62.2119 99C62.9052 99 63.4225 98.8453 63.7639 98.536C64.1052 98.216 64.2759 97.768 64.2759 97.192C64.2759 95.976 63.5879 95.368 62.2119 95.368H60.1959V99H62.2119ZM69.7115 97.464C69.9782 97.016 70.3302 96.6693 70.7675 96.424C71.2155 96.168 71.7435 96.04 72.3515 96.04V97.928H71.8875C71.1728 97.928 70.6288 98.1093 70.2555 98.472C69.8928 98.8347 69.7115 99.464 69.7115 100.36V105H67.8875V96.184H69.7115V97.464ZM82.1081 100.376C82.1081 100.707 82.0868 101.005 82.0441 101.272H75.3081C75.3615 101.976 75.6228 102.541 76.0921 102.968C76.5615 103.395 77.1375 103.608 77.8201 103.608C78.8015 103.608 79.4948 103.197 79.9001 102.376H81.8681C81.6015 103.187 81.1161 103.853 80.4121 104.376C79.7188 104.888 78.8548 105.144 77.8201 105.144C76.9775 105.144 76.2201 104.957 75.5481 104.584C74.8868 104.2 74.3641 103.667 73.9801 102.984C73.6068 102.291 73.4201 101.491 73.4201 100.584C73.4201 99.6773 73.6015 98.8827 73.9641 98.2C74.3375 97.5067 74.8548 96.9733 75.5161 96.6C76.1881 96.2267 76.9561 96.04 77.8201 96.04C78.6521 96.04 79.3935 96.2213 80.0441 96.584C80.6948 96.9467 81.2015 97.4587 81.5641 98.12C81.9268 98.7707 82.1081 99.5227 82.1081 100.376ZM80.2041 99.8C80.1935 99.128 79.9535 98.5893 79.4841 98.184C79.0148 97.7787 78.4335 97.576 77.7401 97.576C77.1108 97.576 76.5721 97.7787 76.1241 98.184C75.6761 98.5787 75.4095 99.1173 75.3241 99.8H80.2041ZM87.1031 105.144C86.4098 105.144 85.7858 105.021 85.2311 104.776C84.6871 104.52 84.2551 104.179 83.9351 103.752C83.6151 103.315 83.4445 102.829 83.4231 102.296H85.3111C85.3431 102.669 85.5191 102.984 85.8391 103.24C86.1698 103.485 86.5805 103.608 87.0711 103.608C87.5831 103.608 87.9778 103.512 88.2551 103.32C88.5431 103.117 88.6871 102.861 88.6871 102.552C88.6871 102.221 88.5271 101.976 88.2071 101.816C87.8978 101.656 87.4018 101.48 86.7191 101.288C86.0578 101.107 85.5191 100.931 85.1031 100.76C84.6871 100.589 84.3245 100.328 84.0151 99.976C83.7165 99.624 83.5671 99.16 83.5671 98.584C83.5671 98.1147 83.7058 97.688 83.9831 97.304C84.2605 96.9093 84.6551 96.6 85.1671 96.376C85.6898 96.152 86.2871 96.04 86.9591 96.04C87.9618 96.04 88.7671 96.296 89.3751 96.808C89.9938 97.3093 90.3245 97.9973 90.3671 98.872H88.5431C88.5111 98.4773 88.3511 98.1627 88.0631 97.928C87.7751 97.6933 87.3858 97.576 86.8951 97.576C86.4151 97.576 86.0471 97.6667 85.7911 97.848C85.5351 98.0293 85.4071 98.2693 85.4071 98.568C85.4071 98.8027 85.4925 99 85.6631 99.16C85.8338 99.32 86.0418 99.448 86.2871 99.544C86.5325 99.6293 86.8951 99.7413 87.3751 99.88C88.0151 100.051 88.5378 100.227 88.9431 100.408C89.3591 100.579 89.7165 100.835 90.0151 101.176C90.3138 101.517 90.4685 101.971 90.4791 102.536C90.4791 103.037 90.3405 103.485 90.0631 103.88C89.7858 104.275 89.3911 104.584 88.8791 104.808C88.3778 105.032 87.7858 105.144 87.1031 105.144ZM95.65 105.144C94.9567 105.144 94.3327 105.021 93.778 104.776C93.234 104.52 92.802 104.179 92.482 103.752C92.162 103.315 91.9913 102.829 91.97 102.296H93.858C93.89 102.669 94.066 102.984 94.386 103.24C94.7167 103.485 95.1273 103.608 95.618 103.608C96.13 103.608 96.5247 103.512 96.802 103.32C97.09 103.117 97.234 102.861 97.234 102.552C97.234 102.221 97.074 101.976 96.754 101.816C96.4447 101.656 95.9487 101.48 95.266 101.288C94.6047 101.107 94.066 100.931 93.65 100.76C93.234 100.589 92.8713 100.328 92.562 99.976C92.2633 99.624 92.114 99.16 92.114 98.584C92.114 98.1147 92.2527 97.688 92.53 97.304C92.8073 96.9093 93.202 96.6 93.714 96.376C94.2367 96.152 94.834 96.04 95.506 96.04C96.5087 96.04 97.314 96.296 97.922 96.808C98.5407 97.3093 98.8713 97.9973 98.914 98.872H97.09C97.058 98.4773 96.898 98.1627 96.61 97.928C96.322 97.6933 95.9327 97.576 95.442 97.576C94.962 97.576 94.594 97.6667 94.338 97.848C94.082 98.0293 93.954 98.2693 93.954 98.568C93.954 98.8027 94.0393 99 94.21 99.16C94.3807 99.32 94.5887 99.448 94.834 99.544C95.0793 99.6293 95.442 99.7413 95.922 99.88C96.562 100.051 97.0847 100.227 97.49 100.408C97.906 100.579 98.2633 100.835 98.562 101.176C98.8607 101.517 99.0153 101.971 99.026 102.536C99.026 103.037 98.8873 103.485 98.61 103.88C98.3327 104.275 97.938 104.584 97.426 104.808C96.9247 105.032 96.3327 105.144 95.65 105.144Z" fill="black"/>
</svg>
