<svg xmlns="http://www.w3.org/2000/svg" viewBox="0 0 500 500"><g id="freepik--background-complete--inject-5"><rect y="382.4" width="500" height="0.25" style="fill:#ebebeb"></rect><rect x="416.78" y="398.49" width="33.12" height="0.25" style="fill:#ebebeb"></rect><rect x="322.53" y="401.21" width="8.69" height="0.25" style="fill:#ebebeb"></rect><rect x="396.59" y="389.21" width="19.19" height="0.25" style="fill:#ebebeb"></rect><rect x="52.46" y="390.89" width="43.19" height="0.25" style="fill:#ebebeb"></rect><rect x="104.56" y="390.89" width="6.33" height="0.25" style="fill:#ebebeb"></rect><rect x="131.47" y="395.11" width="93.68" height="0.25" style="fill:#ebebeb"></rect><path d="M237,337.8H43.91a5.71,5.71,0,0,1-5.7-5.71V60.66A5.71,5.71,0,0,1,43.91,55H237a5.71,5.71,0,0,1,5.71,5.71V332.09A5.71,5.71,0,0,1,237,337.8ZM43.91,55.2a5.46,5.46,0,0,0-5.45,5.46V332.09a5.46,5.46,0,0,0,5.45,5.46H237a5.47,5.47,0,0,0,5.46-5.46V60.66A5.47,5.47,0,0,0,237,55.2Z" style="fill:#ebebeb"></path><path d="M453.31,337.8H260.21a5.72,5.72,0,0,1-5.71-5.71V60.66A5.72,5.72,0,0,1,260.21,55h193.1A5.71,5.71,0,0,1,459,60.66V332.09A5.71,5.71,0,0,1,453.31,337.8ZM260.21,55.2a5.47,5.47,0,0,0-5.46,5.46V332.09a5.47,5.47,0,0,0,5.46,5.46h193.1a5.47,5.47,0,0,0,5.46-5.46V60.66a5.47,5.47,0,0,0-5.46-5.46Z" style="fill:#ebebeb"></path><polygon points="406.85 148.53 373.62 129.2 348.02 129.2 314.24 147.62 314.24 272.9 406.85 272.9 406.85 148.53" style="fill:#e0e0e0"></polygon><path d="M313.29,148.53l.95-.91a65.8,65.8,0,0,1,45.83-18.42h0a65.8,65.8,0,0,1,45.83,18.42l1,.91V272.9H313.29Zm87.36,2.66a60.07,60.07,0,0,0-81.16,0V266.7h81.16Z" style="fill:#fafafa"></path><polygon points="362.4 267.44 357.74 267.44 357.74 225.86 318.32 225.86 318.32 221.21 357.74 221.21 357.74 178.68 318.32 178.68 318.32 174.03 357.74 174.03 357.74 134.6 362.4 134.6 362.4 174.03 401.82 174.03 401.82 178.68 362.4 178.68 362.4 221.21 401.82 221.21 401.82 225.86 362.4 225.86 362.4 267.44" style="fill:#f0f0f0"></polygon><path d="M310.18,147.26l.91-.9a69.34,69.34,0,0,1,98,0l.91.9V276H310.18Zm93.57,2.59a63.13,63.13,0,0,0-87.36,0v120h87.36Z" style="fill:#f0f0f0"></path><polygon points="186.71 148.53 153.48 129.2 127.88 129.2 94.1 147.62 94.1 272.9 186.71 272.9 186.71 148.53" style="fill:#e0e0e0"></polygon><path d="M93.15,148.53l.95-.91a65.8,65.8,0,0,1,45.83-18.42h0a65.8,65.8,0,0,1,45.83,18.42l1,.91V272.9H93.15Zm87.36,2.66a60.07,60.07,0,0,0-81.16,0V266.7h81.16Z" style="fill:#fafafa"></path><polygon points="142.26 267.44 137.6 267.44 137.6 225.86 98.18 225.86 98.18 221.21 137.6 221.21 137.6 178.68 98.18 178.68 98.18 174.03 137.6 174.03 137.6 134.6 142.26 134.6 142.26 174.03 181.68 174.03 181.68 178.68 142.26 178.68 142.26 221.21 181.68 221.21 181.68 225.86 142.26 225.86 142.26 267.44" style="fill:#f0f0f0"></polygon><path d="M90,147.26l.91-.9a69.34,69.34,0,0,1,98,0l.91.9V276H90Zm93.57,2.59a63.13,63.13,0,0,0-87.36,0v120h87.36Z" style="fill:#f0f0f0"></path><rect x="74.8" y="374.52" width="21.6" height="8.54" style="fill:#f5f5f5"></rect><rect x="63.05" y="374.52" width="9.85" height="8.54" style="fill:#f5f5f5"></rect><rect x="98.28" y="374.52" width="21.6" height="8.54" style="fill:#f5f5f5"></rect><rect x="121.77" y="374.52" width="21.6" height="8.54" style="fill:#f5f5f5"></rect><rect x="145.26" y="374.52" width="21.6" height="8.54" style="fill:#f5f5f5"></rect><rect x="168.74" y="374.52" width="21.6" height="8.54" style="fill:#f5f5f5"></rect><rect x="192.23" y="374.52" width="21.6" height="8.54" style="fill:#f5f5f5"></rect><rect x="215.71" y="374.52" width="21.6" height="8.54" style="fill:#f5f5f5"></rect><rect x="239.2" y="374.52" width="21.6" height="8.54" style="fill:#f5f5f5"></rect><rect x="262.69" y="374.52" width="21.6" height="8.54" style="fill:#f5f5f5"></rect><rect x="286.17" y="374.52" width="21.6" height="8.54" style="fill:#f5f5f5"></rect><rect x="309.66" y="374.52" width="21.6" height="8.54" style="fill:#f5f5f5"></rect><rect x="333.15" y="374.52" width="21.6" height="8.54" style="fill:#f5f5f5"></rect><rect x="356.63" y="374.52" width="21.6" height="8.54" style="fill:#f5f5f5"></rect><rect x="380.12" y="374.52" width="21.6" height="8.54" style="fill:#f5f5f5"></rect><rect x="403.61" y="374.52" width="21.6" height="8.54" style="fill:#f5f5f5"></rect><rect x="427.09" y="374.52" width="9.85" height="8.54" style="fill:#f5f5f5"></rect><rect x="63.05" y="363.82" width="21.6" height="8.54" style="fill:#f5f5f5"></rect><rect x="86.54" y="363.82" width="21.6" height="8.54" style="fill:#f5f5f5"></rect><rect x="110.03" y="363.82" width="21.6" height="8.54" style="fill:#f5f5f5"></rect><rect x="133.51" y="363.82" width="21.6" height="8.54" style="fill:#f5f5f5"></rect><rect x="157" y="363.82" width="21.6" height="8.54" style="fill:#f5f5f5"></rect><rect x="180.49" y="363.82" width="21.6" height="8.54" style="fill:#f5f5f5"></rect><rect x="203.97" y="363.82" width="21.6" height="8.54" style="fill:#f5f5f5"></rect><rect x="227.46" y="363.82" width="21.6" height="8.54" style="fill:#f5f5f5"></rect><rect x="250.94" y="363.82" width="21.6" height="8.54" style="fill:#f5f5f5"></rect><rect x="274.43" y="363.82" width="21.6" height="8.54" style="fill:#f5f5f5"></rect><rect x="297.92" y="363.82" width="21.6" height="8.54" style="fill:#f5f5f5"></rect><rect x="321.4" y="363.82" width="21.6" height="8.54" style="fill:#f5f5f5"></rect><rect x="344.89" y="363.82" width="21.6" height="8.54" style="fill:#f5f5f5"></rect><rect x="368.38" y="363.82" width="21.6" height="8.54" style="fill:#f5f5f5"></rect><rect x="391.86" y="363.82" width="21.6" height="8.54" style="fill:#f5f5f5"></rect><rect x="415.35" y="363.82" width="21.6" height="8.54" style="fill:#f5f5f5"></rect><rect x="74.8" y="353.12" width="21.6" height="8.54" style="fill:#f5f5f5"></rect><rect x="63.05" y="353.12" width="9.85" height="8.54" style="fill:#f5f5f5"></rect><rect x="98.28" y="353.12" width="21.6" height="8.54" style="fill:#f5f5f5"></rect><rect x="121.77" y="353.12" width="21.6" height="8.54" style="fill:#f5f5f5"></rect><rect x="145.26" y="353.12" width="21.6" height="8.54" style="fill:#f5f5f5"></rect><rect x="168.74" y="353.12" width="21.6" height="8.54" style="fill:#f5f5f5"></rect><rect x="192.23" y="353.12" width="21.6" height="8.54" style="fill:#f5f5f5"></rect><rect x="215.71" y="353.12" width="21.6" height="8.54" style="fill:#f5f5f5"></rect><rect x="239.2" y="353.12" width="21.6" height="8.54" style="fill:#f5f5f5"></rect><rect x="262.69" y="353.12" width="21.6" height="8.54" style="fill:#f5f5f5"></rect><rect x="286.17" y="353.12" width="21.6" height="8.54" style="fill:#f5f5f5"></rect><rect x="309.66" y="353.12" width="21.6" height="8.54" style="fill:#f5f5f5"></rect><rect x="333.15" y="353.12" width="21.6" height="8.54" style="fill:#f5f5f5"></rect><rect x="356.63" y="353.12" width="21.6" height="8.54" style="fill:#f5f5f5"></rect><rect x="380.12" y="353.12" width="21.6" height="8.54" style="fill:#f5f5f5"></rect><rect x="403.61" y="353.12" width="21.6" height="8.54" style="fill:#f5f5f5"></rect><rect x="427.09" y="353.12" width="9.85" height="8.54" style="fill:#f5f5f5"></rect><rect x="63.05" y="342.42" width="21.6" height="8.54" style="fill:#f5f5f5"></rect><rect x="86.54" y="342.42" width="21.6" height="8.54" style="fill:#f5f5f5"></rect><rect x="110.03" y="342.42" width="21.6" height="8.54" style="fill:#f5f5f5"></rect><rect x="133.51" y="342.42" width="21.6" height="8.54" style="fill:#f5f5f5"></rect><rect x="157" y="342.42" width="21.6" height="8.54" style="fill:#f5f5f5"></rect><rect x="180.49" y="342.42" width="21.6" height="8.54" style="fill:#f5f5f5"></rect><rect x="203.97" y="342.42" width="21.6" height="8.54" style="fill:#f5f5f5"></rect><rect x="227.46" y="342.42" width="21.6" height="8.54" style="fill:#f5f5f5"></rect><rect x="250.94" y="342.42" width="21.6" height="8.54" style="fill:#f5f5f5"></rect><rect x="274.43" y="342.42" width="21.6" height="8.54" style="fill:#f5f5f5"></rect><rect x="297.92" y="342.42" width="21.6" height="8.54" style="fill:#f5f5f5"></rect><rect x="321.4" y="342.42" width="21.6" height="8.54" style="fill:#f5f5f5"></rect><rect x="344.89" y="342.42" width="21.6" height="8.54" style="fill:#f5f5f5"></rect><rect x="368.38" y="342.42" width="21.6" height="8.54" style="fill:#f5f5f5"></rect><rect x="391.86" y="342.42" width="21.6" height="8.54" style="fill:#f5f5f5"></rect><rect x="415.35" y="342.42" width="21.6" height="8.54" style="fill:#f5f5f5"></rect><rect x="74.8" y="331.72" width="21.6" height="8.54" style="fill:#f5f5f5"></rect><rect x="63.05" y="331.72" width="9.85" height="8.54" style="fill:#f5f5f5"></rect><rect x="98.28" y="331.72" width="21.6" height="8.54" style="fill:#f5f5f5"></rect><rect x="121.77" y="331.72" width="21.6" height="8.54" style="fill:#f5f5f5"></rect><rect x="145.26" y="331.72" width="21.6" height="8.54" style="fill:#f5f5f5"></rect><rect x="168.74" y="331.72" width="21.6" height="8.54" style="fill:#f5f5f5"></rect><rect x="192.23" y="331.72" width="21.6" height="8.54" style="fill:#f5f5f5"></rect><rect x="215.71" y="331.72" width="21.6" height="8.54" style="fill:#f5f5f5"></rect><rect x="239.2" y="331.72" width="21.6" height="8.54" style="fill:#f5f5f5"></rect><rect x="262.69" y="331.72" width="21.6" height="8.54" style="fill:#f5f5f5"></rect><rect x="286.17" y="331.72" width="21.6" height="8.54" style="fill:#f5f5f5"></rect><rect x="309.66" y="331.72" width="21.6" height="8.54" style="fill:#f5f5f5"></rect><rect x="333.15" y="331.72" width="21.6" height="8.54" style="fill:#f5f5f5"></rect><rect x="356.63" y="331.72" width="21.6" height="8.54" style="fill:#f5f5f5"></rect><rect x="380.12" y="331.72" width="21.6" height="8.54" style="fill:#f5f5f5"></rect><rect x="403.61" y="331.72" width="21.6" height="8.54" style="fill:#f5f5f5"></rect><rect x="427.09" y="331.72" width="9.85" height="8.54" style="fill:#f5f5f5"></rect><rect x="63.05" y="321.02" width="21.6" height="8.54" style="fill:#f5f5f5"></rect><rect x="86.54" y="321.02" width="21.6" height="8.54" style="fill:#f5f5f5"></rect><rect x="110.03" y="321.02" width="21.6" height="8.54" style="fill:#f5f5f5"></rect><rect x="133.51" y="321.02" width="21.6" height="8.54" style="fill:#f5f5f5"></rect><rect x="157" y="321.02" width="21.6" height="8.54" style="fill:#f5f5f5"></rect><rect x="180.49" y="321.02" width="21.6" height="8.54" style="fill:#f5f5f5"></rect><rect x="203.97" y="321.02" width="21.6" height="8.54" style="fill:#f5f5f5"></rect><rect x="227.46" y="321.02" width="21.6" height="8.54" style="fill:#f5f5f5"></rect><rect x="250.94" y="321.02" width="21.6" height="8.54" style="fill:#f5f5f5"></rect><rect x="274.43" y="321.02" width="21.6" height="8.54" style="fill:#f5f5f5"></rect><rect x="297.92" y="321.02" width="21.6" height="8.54" style="fill:#f5f5f5"></rect><rect x="321.4" y="321.02" width="21.6" height="8.54" style="fill:#f5f5f5"></rect><rect x="344.89" y="321.02" width="21.6" height="8.54" style="fill:#f5f5f5"></rect><rect x="368.38" y="321.02" width="21.6" height="8.54" style="fill:#f5f5f5"></rect><rect x="391.86" y="321.02" width="21.6" height="8.54" style="fill:#f5f5f5"></rect><rect x="415.35" y="321.02" width="21.6" height="8.54" style="fill:#f5f5f5"></rect></g><g id="freepik--Shadow--inject-5"><ellipse id="freepik--path--inject-5" cx="250" cy="416.24" rx="193.89" ry="11.32" style="fill:#f5f5f5"></ellipse></g><g id="freepik--Clock--inject-5"><circle cx="194.31" cy="234.84" r="105.34" transform="translate(-109.14 206.18) rotate(-45)" style="fill:#407BFF"></circle><circle cx="194.31" cy="234.84" r="99.34" transform="translate(-109.14 206.18) rotate(-45)" style="fill:#fff;opacity:0.4"></circle><path d="M291.25,234.84a97,97,0,1,1-49.77-84.65A97.05,97.05,0,0,1,291.25,234.84Z" style="fill:#fff;opacity:0.7000000000000001"></path><path d="M194.31,129.5A105.34,105.34,0,1,0,299.66,234.84,105.34,105.34,0,0,0,194.31,129.5Zm0,208.57A103.24,103.24,0,1,1,297.55,234.84,103.23,103.23,0,0,1,194.31,338.07Z" style="isolation:isolate;opacity:0.2"></path><path d="M241.48,150.19l-47.17,85.38V137.91A96.15,96.15,0,0,1,241.48,150.19Z" style="fill:#407BFF"></path><path d="M241.48,150.19l-47.17,85.38V137.91A96.15,96.15,0,0,1,241.48,150.19Z" style="fill:#fff;opacity:0.5"></path><g style="opacity:0.7000000000000001"><path d="M197.44,143.93,199,144l-.44,7.08,4.39.27-.09,1.32-5.94-.37Z" style="fill:#fff"></path><path d="M203.06,149l.68-4.7,1.55.23-.68,4.63c-.25,1.71.41,2.56,1.76,2.76s2.21-.43,2.46-2.14l.68-4.64,1.52.23-.69,4.69c-.35,2.42-1.91,3.54-4.18,3.21S202.7,151.44,203.06,149Z" style="fill:#fff"></path><path d="M219.87,147.49l-2,8.16-1.25-.31-3.13-6.64-1.37,5.52-1.5-.37,2-8.16,1.25.31,3.13,6.64,1.37-5.53Z" style="fill:#fff"></path><path d="M219.52,151.77a4.55,4.55,0,0,1,8.36-.15l-1.27.56a3,3,0,0,0-1.79-1.67,3,3,0,1,0-2,5.57,2.93,2.93,0,0,0,2.45-.19l.64,1.24a4.56,4.56,0,0,1-6.42-5.36Z" style="fill:#fff"></path><path d="M235.93,153.92l-3.54,7.62-1.42-.66,1.52-3.26-3.94-1.83L227,159.05l-1.41-.66,3.54-7.62,1.41.66-1.46,3.15,3.94,1.83,1.46-3.15Z" style="fill:#fff"></path></g><path d="M194.32,238.44a2.42,2.42,0,0,1-.38,0,3.6,3.6,0,0,1-3.21-3.95L197,173.9a3.6,3.6,0,1,1,7.16.75l-6.29,60.56A3.61,3.61,0,0,1,194.32,238.44Z" style="fill:#263238"></path><path d="M199.36,187.47h-.12a1.2,1.2,0,0,1-1.07-1.32l1.24-12a1.2,1.2,0,0,1,2.39.25l-1.24,12A1.21,1.21,0,0,1,199.36,187.47Z" style="fill:#407BFF"></path><g style="opacity:0.2"><path d="M194.32,238.44a2.42,2.42,0,0,1-.38,0,3.6,3.6,0,0,1-3.21-3.95L197,173.9a3.6,3.6,0,1,1,7.16.75l-6.29,60.56A3.61,3.61,0,0,1,194.32,238.44Z" style="fill:#fff"></path><path d="M199.36,187.47h-.12a1.2,1.2,0,0,1-1.07-1.32l1.24-12a1.2,1.2,0,0,1,2.39.25l-1.24,12A1.21,1.21,0,0,1,199.36,187.47Z" style="fill:#fff"></path></g><path d="M194.31,154.38a.5.5,0,0,1-.5-.5V142.8a.51.51,0,0,1,.5-.5.5.5,0,0,1,.5.5v11.08A.5.5,0,0,1,194.31,154.38Z" style="fill:#263238"></path><path d="M194.31,327.38a.51.51,0,0,1-.5-.5V315.79a.51.51,0,0,1,.5-.5.5.5,0,0,1,.5.5v11.09A.5.5,0,0,1,194.31,327.38Z" style="fill:#263238"></path><path d="M286.35,235.34H275.27a.5.5,0,0,1,0-1h11.08a.5.5,0,0,1,0,1Z" style="fill:#263238"></path><path d="M113.36,235.34H102.28a.5.5,0,0,1,0-1h11.08a.5.5,0,0,1,0,1Z" style="fill:#263238"></path><path d="M154.89,164.63a.49.49,0,0,1-.43-.26l-5.4-9.68a.5.5,0,0,1,.19-.68.51.51,0,0,1,.68.2l5.4,9.68a.51.51,0,0,1-.19.68A.54.54,0,0,1,154.89,164.63Z" style="fill:#263238"></path><path d="M239.13,315.73a.53.53,0,0,1-.44-.26l-5.39-9.68a.5.5,0,0,1,.19-.68.5.5,0,0,1,.68.19l5.4,9.68a.5.5,0,0,1-.2.68A.42.42,0,0,1,239.13,315.73Z" style="fill:#263238"></path><path d="M113.93,280.16a.51.51,0,0,1-.44-.26.49.49,0,0,1,.19-.68l9.68-5.4a.51.51,0,0,1,.68.2.5.5,0,0,1-.19.68l-9.68,5.39A.44.44,0,0,1,113.93,280.16Z" style="fill:#263238"></path><path d="M265,195.92a.49.49,0,0,1-.43-.26.5.5,0,0,1,.19-.68l9.68-5.39a.5.5,0,0,1,.68.19.51.51,0,0,1-.19.68l-9.68,5.39A.47.47,0,0,1,265,195.92Z" style="fill:#263238"></path><path d="M233.73,164.63a.53.53,0,0,1-.24-.06.5.5,0,0,1-.19-.68l5.39-9.68a.51.51,0,0,1,.68-.2.5.5,0,0,1,.2.68l-5.4,9.68A.49.49,0,0,1,233.73,164.63Z" style="fill:#263238"></path><path d="M149.5,315.73a.45.45,0,0,1-.25-.07.49.49,0,0,1-.19-.68l5.4-9.68a.5.5,0,0,1,.87.49l-5.4,9.68A.51.51,0,0,1,149.5,315.73Z" style="fill:#263238"></path><path d="M274.7,280.16a.44.44,0,0,1-.24-.07l-9.68-5.39a.5.5,0,0,1-.19-.68.5.5,0,0,1,.68-.2l9.68,5.4a.5.5,0,0,1,.19.68A.51.51,0,0,1,274.7,280.16Z" style="fill:#263238"></path><path d="M123.6,195.92a.44.44,0,0,1-.24-.07l-9.68-5.39a.5.5,0,0,1,.49-.87l9.68,5.39a.5.5,0,0,1,.19.68A.49.49,0,0,1,123.6,195.92Z" style="fill:#263238"></path><path d="M194.31,238.44a3.59,3.59,0,0,1-3.14-5.35l36.69-66a3.6,3.6,0,1,1,6.29,3.5l-36.69,66A3.61,3.61,0,0,1,194.31,238.44Z" style="fill:#263238"></path><path d="M199.72,234.84a5.41,5.41,0,1,1-5.41-5.41A5.41,5.41,0,0,1,199.72,234.84Z" style="fill:#263238"></path><path d="M194.31,237.85a3,3,0,1,1,3-3A3,3,0,0,1,194.31,237.85Z" style="fill:#fff;opacity:0.2"></path><path d="M224.67,181.47a1.25,1.25,0,0,1-.58-.15,1.2,1.2,0,0,1-.47-1.63L230,168.31a1.2,1.2,0,1,1,2.09,1.16l-6.33,11.39A1.2,1.2,0,0,1,224.67,181.47Z" style="fill:#407BFF"></path></g><g id="freepik--Plant--inject-5"><path d="M121.34,389.64l-.78,0c0-1.16,1-28.49,5.72-33.11s10.63-.07,10.69,0l-.5.6c-.21-.18-5.26-4.28-9.65,0S121.35,389.36,121.34,389.64Z" style="fill:#407BFF"></path><path d="M121,395.12l-.78-.07c0-.33,3.07-33.18-8.83-46.84l.59-.52C124.05,361.61,121,394.79,121,395.12Z" style="fill:#407BFF"></path><path d="M121.33,391.61c-.1-1.55-2.39-38.06,6.75-46.47l.53.57c-8.87,8.16-6.53,45.48-6.5,45.85Z" style="fill:#407BFF"></path><path d="M120.17,391.59c0-.25-.29-24.78-6.79-28.51a4.15,4.15,0,0,0-3.79-.39c-3.81,1.58-5.84,8.86-5.86,8.93l-.75-.2c.08-.32,2.15-7.73,6.32-9.45a4.89,4.89,0,0,1,4.47.43c6.89,4,7.17,28.16,7.18,29.18Z" style="fill:#407BFF"></path><path d="M122.85,391.61c0-.79-1.06-19.39,4.22-26.28,1.4-1.82,3-2.69,4.64-2.57,3.75.26,6.66,5.34,6.78,5.55l-.68.39c0-.05-2.82-4.93-6.15-5.16-1.41-.1-2.74.66-4,2.27-5.1,6.66-4.07,25.57-4.06,25.76Z" style="fill:#407BFF"></path><path d="M121.8,394.18l-.78-.05c0-.45,3.32-44.77-2.15-52.16l.63-.47C125.14,349.13,121.94,392.35,121.8,394.18Z" style="fill:#407BFF"></path><path d="M107.78,366.38s3.37,1.24,2.37,4.18-11.68,7.78-11.68,7.78-4.47-4.1-.37-10.77S107.69,364.27,107.78,366.38Z" style="fill:#407BFF"></path><path d="M107.78,366.38s3.37,1.24,2.37,4.18-11.68,7.78-11.68,7.78-4.47-4.1-.37-10.77S107.69,364.27,107.78,366.38Z" style="fill:#fff;isolation:isolate;opacity:0.2"></path><path d="M122.46,360.78s-3.6-.15-3.8,3,7.79,11.68,7.79,11.68,5.7-2.07,4.48-9.8S123.35,358.88,122.46,360.78Z" style="fill:#407BFF"></path><path d="M122.46,360.78s-3.6-.15-3.8,3,7.79,11.68,7.79,11.68,5.7-2.07,4.48-9.8S123.35,358.88,122.46,360.78Z" style="fill:#fff;isolation:isolate;opacity:0.2"></path><path d="M125.5,346s-2.39-.26-2.2-1.72,9.32-5.22,14.7.86c0,0-3.44,5.92-8.43,6S125.5,346,125.5,346Z" style="fill:#407BFF"></path><path d="M125.5,346s-2.39-.26-2.2-1.72,9.32-5.22,14.7.86c0,0-3.44,5.92-8.43,6S125.5,346,125.5,346Z" style="fill:#fff;isolation:isolate;opacity:0.2"></path><path d="M121,342.4s2.17,1.05,2.77-.29-5.14-9.36-12.93-7.05c0,0-.21,6.85,4,9.55S121,342.4,121,342.4Z" style="fill:#407BFF"></path><path d="M121,342.4s2.17,1.05,2.77-.29-5.14-9.36-12.93-7.05c0,0-.21,6.85,4,9.55S121,342.4,121,342.4Z" style="fill:#fff;isolation:isolate;opacity:0.2"></path><path d="M132.39,365.2s-1.66-1.34.13-2,10.55-.47,10.64,8.21c0,0-10.21,1.7-11.47-1.61S132.39,365.2,132.39,365.2Z" style="fill:#407BFF"></path><path d="M132.39,365.2s-1.66-1.34.13-2,10.55-.47,10.64,8.21c0,0-10.21,1.7-11.47-1.61S132.39,365.2,132.39,365.2Z" style="fill:#fff;isolation:isolate;opacity:0.2"></path><path d="M111.58,345.73s1.65-1.34-.13-2-10.55-.46-10.64,8.21c0,0,10.2,1.7,11.47-1.61S111.58,345.73,111.58,345.73Z" style="fill:#407BFF"></path><path d="M111.58,345.73s1.65-1.34-.13-2-10.55-.46-10.64,8.21c0,0,10.2,1.7,11.47-1.61S111.58,345.73,111.58,345.73Z" style="fill:#fff;isolation:isolate;opacity:0.2"></path><path d="M117,352.72s.15-1.62-1.16-1-5.88,5.57-1.15,10.25c0,0,6.38-4.73,5.23-7.18S117,352.72,117,352.72Z" style="fill:#407BFF"></path><path d="M117,352.72s.15-1.62-1.16-1-5.88,5.57-1.15,10.25c0,0,6.38-4.73,5.23-7.18S117,352.72,117,352.72Z" style="fill:#fff;isolation:isolate;opacity:0.2"></path><path d="M133.87,355s-1-1.3.46-1.46,7.94,1.57,6.42,8.05c0,0-7.9-.59-8.24-3.28S133.87,355,133.87,355Z" style="fill:#407BFF"></path><path d="M133.87,355s-1-1.3.46-1.46,7.94,1.57,6.42,8.05c0,0-7.9-.59-8.24-3.28S133.87,355,133.87,355Z" style="fill:#fff;isolation:isolate;opacity:0.2"></path><polygon points="107.15 415.65 134.28 415.65 137.21 385.94 104.22 385.94 107.15 415.65" style="fill:#407BFF"></polygon><polygon points="107.15 415.65 134.28 415.65 137.21 385.94 104.22 385.94 107.15 415.65" style="fill:#fff;isolation:isolate;opacity:0.5"></polygon><rect x="102.77" y="382.66" width="35.89" height="6.56" transform="translate(241.43 771.87) rotate(180)" style="fill:#407BFF"></rect><rect x="102.77" y="382.66" width="35.89" height="6.56" transform="translate(241.43 771.87) rotate(180)" style="fill:#fff;isolation:isolate;opacity:0.2"></rect></g><g id="freepik--speech-bubble--inject-5"><path d="M351.09,138.44H328.5a7.77,7.77,0,0,0-7.77,7.77v22a7.77,7.77,0,0,0,7.77,7.76h9l2.39,8.2,2.83-8.2h8.37a7.76,7.76,0,0,0,7.76-7.76v-22A7.76,7.76,0,0,0,351.09,138.44Z" style="fill:#407BFF"></path><path d="M351.09,138.44H328.5a7.77,7.77,0,0,0-7.77,7.77v22a7.77,7.77,0,0,0,7.77,7.76h9l2.39,8.2,2.83-8.2h8.37a7.76,7.76,0,0,0,7.76-7.76v-22A7.76,7.76,0,0,0,351.09,138.44Z" style="fill:#fff;opacity:0.7000000000000001"></path><path d="M331.94,152.79c2-3.28,5.81-2.08,7.82.42,1.94-2.55,5.75-3.85,7.8-.62,3.45,5.44-3.45,10.61-6.71,12.64-.37.24-.67.43-.93.58l-.94-.55C335.66,163.31,328.64,158.32,331.94,152.79Z" style="fill:#407BFF"></path></g><g id="freepik--Character--inject-5"><polygon points="398.09 257.4 393.78 257.4 381.78 327.82 386.09 327.82 398.09 257.4" style="fill:#263238"></polygon><polygon points="382.09 257.4 377.78 257.4 365.78 327.82 370.09 327.82 382.09 257.4" style="fill:#263238"></polygon><polygon points="366.09 257.4 361.78 257.4 349.78 327.82 354.09 327.82 366.09 257.4" style="fill:#263238"></polygon><polygon points="398.09 257.4 393.78 257.4 381.78 327.82 386.09 327.82 398.09 257.4" style="fill:#fff;isolation:isolate;opacity:0.4"></polygon><polygon points="382.09 257.4 377.78 257.4 365.78 327.82 370.09 327.82 382.09 257.4" style="fill:#fff;isolation:isolate;opacity:0.4"></polygon><polygon points="366.09 257.4 361.78 257.4 349.78 327.82 354.09 327.82 366.09 257.4" style="fill:#fff;isolation:isolate;opacity:0.4"></polygon><path d="M390.64,265.53c-6.94-4.2-16.57-4.2-25.78,0-4.65,2-10.16,2.62-12.59-.32h0c-4.15-4.32,3.13-17.13,17.11-21.19,10-2.87,19.91-2.87,28.36,0,11.79,4.06,12.15,16.87,5.67,21.19h0C399.38,268.15,394.19,267.57,390.64,265.53Z" style="fill:#407BFF"></path><path d="M390.64,265.53c-6.94-4.2-16.57-4.2-25.78,0-4.65,2-10.16,2.62-12.59-.32h0c-4.15-4.32,3.13-17.13,17.11-21.19,10-2.87,19.91-2.87,28.36,0,11.79,4.06,12.15,16.87,5.67,21.19h0C399.38,268.15,394.19,267.57,390.64,265.53Z" style="fill:#fff;opacity:0.4"></path><path d="M328.09,322H385a5,5,0,0,1,5,5v6.69a0,0,0,0,1,0,0H323.09a0,0,0,0,1,0,0V327A5,5,0,0,1,328.09,322Z" style="fill:#407BFF"></path><path d="M328.09,322H385a5,5,0,0,1,5,5v6.69a0,0,0,0,1,0,0H323.09a0,0,0,0,1,0,0V327A5,5,0,0,1,328.09,322Z" style="fill:#fff;opacity:0.4"></path><polygon points="361.25 329.65 360.89 345.22 359.25 415.65 353.84 415.65 352.21 345.22 351.85 329.65 361.25 329.65" style="fill:#263238"></polygon><polygon points="361.25 329.65 360.89 345.22 359.25 415.65 353.84 415.65 352.21 345.22 351.85 329.65 361.25 329.65" style="fill:#fff;isolation:isolate;opacity:0.4"></polygon><polygon points="361.25 329.65 360.89 345.65 352.21 345.65 351.85 329.65 361.25 329.65" style="isolation:isolate;opacity:0.2"></polygon><polygon points="390.63 415.4 385.63 330.75 377.46 330.75 384.46 415.4 390.63 415.4" style="fill:#263238"></polygon><polygon points="384.45 415.4 390.62 415.4 386.09 338.35 385.64 330.65 377.47 330.65 378.1 338.35 384.45 415.4" style="fill:#fff;isolation:isolate;opacity:0.4"></polygon><polygon points="377.47 330.65 378.1 338.65 386.09 338.65 385.64 330.65 377.47 330.65" style="isolation:isolate;opacity:0.2"></polygon><polygon points="328.64 415.4 335.64 330.75 327.47 330.75 322.47 415.4 328.64 415.4" style="fill:#263238"></polygon><polygon points="328.65 415.4 335 338.35 335.63 330.65 327.46 330.65 327.01 338.35 322.48 415.4 328.65 415.4" style="fill:#fff;isolation:isolate;opacity:0.4"></polygon><polygon points="335.63 330.65 335 338.65 327.01 338.65 327.46 330.65 335.63 330.65" style="isolation:isolate;opacity:0.2"></polygon><rect x="319.88" y="327.82" width="73.33" height="5.84" rx="2.01" style="fill:#263238"></rect><rect x="319.88" y="327.82" width="73.33" height="5.84" rx="2.01" style="fill:#fff;isolation:isolate;opacity:0.6000000000000001"></rect><path d="M350.21,197.06c6.59,9.46,7.76,22.39,6.18,25.3s-29.2,4.49-29.2,4.49,2.35-3.22.8-19.55S350.21,197.06,350.21,197.06Z" style="fill:#263238"></path><path d="M337.73,244.22c-2.84,5.61-5.76,11.21-10.48,15.62a12,12,0,0,1-4.28,2.1,117,117,0,0,1-20.41,4,2.51,2.51,0,0,1-1.23-4.79c6-2.56,12.66-4.79,18.55-7.34a10.65,10.65,0,0,0,1.54-.8l-.13.08c-.1.08-.06,0-.05,0,2.17-2.89,5.76-10.12,7.6-13.4,3.22-5.6,11.52-1.36,8.89,4.54Z" style="fill:#e9b376"></path><path d="M322.36,247.12a19,19,0,0,0,4.06,5.46,13.16,13.16,0,0,0,5.45,3.12,12.35,12.35,0,0,0,1.65.32c7.54.89,1-22.07,1-22.07C328.89,235.85,327.21,239.7,322.36,247.12Z" style="fill:#407BFF"></path><path d="M326.42,252.58a13.16,13.16,0,0,0,5.45,3.12l1.81-15.35c0-.11.42-4.41.37-4.53S328.7,238.52,326.42,252.58Z" style="opacity:0.2"></path><path d="M330.72,216.05c-3.89-3.21-10.35-13.35-1.76-20.43,10.71-8.84,19.15-3.05,23.11,4.33s1.77,14.89-6.58,17.34S333.41,218.27,330.72,216.05Z" style="fill:#263238"></path><path d="M267,384.31l5.53,1.05s30.2-72.38,35-72.59,53.78,22.31,66.05,9.82S368.1,280,368.1,280s-29.52-4.21-31.75,2.46a47.3,47.3,0,0,0-1.25,6c-.33,2-.56,3.75-.56,3.75h0c-.92-.23-30.55-7.88-42.23,0C280.43,300.25,267,384.31,267,384.31Z" style="fill:#ebb376"></path><path d="M352.37,325.6s-2,0-33-1.4c0,0,5.74,53.18,8.27,82.16l-6.46.36s-26-75.31-25.8-85.16S307,308.81,307,308.81,329,321.56,352.37,325.6Z" style="fill:#ebb376"></path><path d="M352.34,325.6c-.32,0-3.46,0-27.62-1.15l.47-6.95A135.67,135.67,0,0,0,352.34,325.6Z" style="fill:#263238"></path><path d="M304.22,354c-5.07-20.37-7.61-30.95-5.07-35.88a15.25,15.25,0,0,1,7.68-6.74c6.6,10.26,27.16,13.41,27.7,13.5h0c15.26.67,17.54.7,17.81.7a136.32,136.32,0,0,1-27.15-8.1A163.84,163.84,0,0,1,307,308.81s-11.3,2.89-11.54,12.75c-.1,4,4.2,19,9.31,35.31A27.5,27.5,0,0,0,304.22,354Z" style="isolation:isolate;opacity:0.2"></path><path d="M261,381a.85.85,0,0,1,0-1,.93.93,0,0,1,.6-.47,3.59,3.59,0,0,1,2,.26c-.61-.54-1.11-1.14-1-1.6.05-.3.3-.49.74-.58a1.33,1.33,0,0,1,1.11.23c1.05.76,1.29,2.93,1.3,3a.22.22,0,0,1,0,.11s0,0,0,.05a.17.17,0,0,1-.06.06h0a.11.11,0,0,1-.08,0,14.86,14.86,0,0,1-2.77.33A2.26,2.26,0,0,1,261,381Zm.74-1a.45.45,0,0,0-.32.24c-.17.31-.08.43-.05.47.32.42,2,.33,3.39.1C263.88,380.4,262.46,379.82,261.76,380Zm1.64-1.92c-.13,0-.35.09-.37.21-.07.39,1,1.36,2.14,2.14a3.81,3.81,0,0,0-1-2.19.89.89,0,0,0-.53-.18Z" style="fill:#263238"></path><path d="M314.77,406.52a.85.85,0,0,1-.22-.94,1,1,0,0,1,.46-.6,3.61,3.61,0,0,1,2-.24c-.72-.37-1.36-.83-1.39-1.29q0-.46.57-.75a1.34,1.34,0,0,1,1.14-.05c1.2.48,2,2.53,2,2.62a.2.2,0,0,1,0,.11h0a.09.09,0,0,1,0,.05h0a.22.22,0,0,1-.05.08l-.06,0h0a10.84,10.84,0,0,1-3.67,1.16A1.23,1.23,0,0,1,314.77,406.52Zm.48-1.14a.47.47,0,0,0-.25.31c-.08.35,0,.43.07.46.41.34,2-.16,3.32-.73C317.4,405.21,315.88,405,315.25,405.38Zm1.12-2.27c-.12.06-.31.18-.31.3,0,.4,1.3,1.07,2.61,1.55a3.86,3.86,0,0,0-1.53-1.88,1.15,1.15,0,0,0-.35-.07A1.07,1.07,0,0,0,316.37,403.11Z" style="fill:#263238"></path><path d="M275.3,382.51c.16-.7-8.54-2.21-8.54-2.21s-6.56,4.09-12,4.06-3.29,3.73,2.43,5.11l14.15,3.41C275.44,393.86,273.73,389.78,275.3,382.51Z" style="fill:#263238"></path><path d="M329,404.46c0-.72-8.83,0-8.83,0s-5.35,5.58-10.6,6.88-2.27,4.43,3.61,4.36l14.56-.18C331.91,415.42,329.26,411.89,329,404.46Z" style="fill:#263238"></path><path d="M368.1,280s-29.52-4.21-31.75,2.46a47.3,47.3,0,0,0-1.25,6c-.33,2-.56,3.75-.56,3.75h0l-2.47-.59-3.77,29.43c16.31,5.24,37.93,9,45.29,1.53C385.84,310.12,368.1,280,368.1,280Z" style="fill:#263238"></path><path d="M334.54,292.23l17.26,3.6s-9.54-5.27-16.7-7.35C334.77,290.52,334.54,292.23,334.54,292.23Z" style="isolation:isolate;opacity:0.30000000000000004"></path><polygon points="366.72 275.45 368.09 280.05 336.35 282.49 335.51 277.06 366.72 275.45" style="fill:#263238"></polygon><polygon points="366.72 275.45 368.09 280.05 336.35 282.49 335.51 277.06 366.72 275.45" style="isolation:isolate;opacity:0.2"></polygon><rect x="356.96" y="275.05" width="1.58" height="8.03" transform="translate(742.16 520.08) rotate(174.13)" style="fill:#263238"></rect><rect x="343.1" y="276.83" width="6.97" height="5.28" transform="translate(710.38 536.14) rotate(176.32)" style="fill:#fff"></rect><rect x="337.47" y="275.91" width="1.58" height="8.03" transform="translate(703.39 523.77) rotate(174.13)" style="fill:#263238"></rect><polygon points="330.35 289.98 333.19 290.83 330.35 322.2 326.54 322.2 330.35 289.98" style="fill:#263238"></polygon><polygon points="330.35 289.98 333.19 290.83 330.35 322.2 326.54 322.2 330.35 289.98" style="fill:#fff;isolation:isolate;opacity:0.4"></polygon><polygon points="323.88 316.95 323.88 325.56 326.54 325.91 327.01 318.22 323.88 316.95" style="fill:#263238"></polygon><polygon points="323.88 316.95 323.88 325.56 326.54 325.91 327.01 318.22 323.88 316.95" style="fill:#fff;isolation:isolate;opacity:0.30000000000000004"></polygon><path d="M328.33,247.68c-.08,6.2,4.91,19.79,7.37,30.29l31-2.52c-.65-3.32-1-8.25-.53-16.28.25-4.7.79-10.47,1.69-17.6.13-1.06.27-2.14.42-3.26a7.69,7.69,0,0,0-7.93-9c-1.31.05-2.7.14-4.11.28a104.38,104.38,0,0,0-14.82,2.13c-1.59.37-3.23.82-4.8,1.27C331,234.65,328.4,241.87,328.33,247.68Z" style="fill:#407BFF"></path><path d="M347.73,214c.2,5,1.31,13.89,5.25,16,0,0-4.55.71-12,9.32-3.88-3-2.27-4.85-2.27-4.85,4.83-2.86,3.79-6.71,2.05-10.08Z" style="fill:#ebb376"></path><path d="M344.88,218.23l-4.13,6.16a15,15,0,0,1,1.05,2.46c1.89-.9,4.06-3.95,3.78-6.11A7.23,7.23,0,0,0,344.88,218.23Z" style="opacity:0.2"></path><path d="M347.6,203.16c1.86,7.69,2.81,10.91.18,16-3.94,7.59-13.79,8.19-17.91,1.21-3.71-6.29-6.12-17.81.34-23.09A10.8,10.8,0,0,1,347.6,203.16Z" style="fill:#ffb573"></path><path d="M339.42,197.43c-1.53,3.17,5.26,10.51,9.42,11.07C355.75,204.35,344,188,339.42,197.43Z" style="fill:#263238"></path><path d="M329.46,195.91c-2.55,1.9-4,7.84-3.9,9.91,4.29-.64,14.06-8,14.06-8s8-.33,3.07-2.86S329.46,195.91,329.46,195.91Z" style="fill:#263238"></path><path d="M329.68,212.18c.19.62,0,1.21-.39,1.34s-.88-.28-1.06-.89,0-1.21.38-1.34S329.49,211.57,329.68,212.18Z" style="fill:#263238"></path><path d="M328.8,211.27l-1.61,0S328.3,212.22,328.8,211.27Z" style="fill:#263238"></path><path d="M331.71,211.45a17.1,17.1,0,0,1-1,4.6,2.76,2.76,0,0,0,2.32-.26Z" style="fill:#ed893e"></path><path d="M351.77,209.46a5.77,5.77,0,0,1-1.93,4c-1.53,1.33-3.16.18-3.47-1.72-.27-1.71.19-4.46,2.08-5.06A2.59,2.59,0,0,1,351.77,209.46Z" style="fill:#ffb573"></path><path d="M338.53,206.6a.38.38,0,0,1-.44-.08,4.42,4.42,0,0,0-3.46-.93.38.38,0,0,1-.11-.75c.1,0,2.64-.38,4.12,1.15a.38.38,0,0,1,0,.54A.31.31,0,0,1,338.53,206.6Z" style="fill:#263238"></path><path d="M326.15,208.44a.38.38,0,0,1-.48-.55,3.77,3.77,0,0,1,3-1.76.38.38,0,0,1,.37.38.38.38,0,0,1-.37.38h0a3,3,0,0,0-2.34,1.41A.4.4,0,0,1,326.15,208.44Z" style="fill:#263238"></path><path d="M336.63,210.05c.19.61,0,1.21-.39,1.33s-.88-.27-1.07-.89,0-1.21.39-1.33S336.44,209.43,336.63,210.05Z" style="fill:#263238"></path><path d="M335.75,209.14l-1.61,0S335.25,210.08,335.75,209.14Z" style="fill:#263238"></path><path d="M334.86,218.73a26.63,26.63,0,0,1,3.1,2.09l.49-.45c2.17-2.05,2.5-3.72,2.21-5a4,4,0,0,0-.87-1.61,3.68,3.68,0,0,0-.78-.7c-.5,1.78-2.38,3.85-3.42,4.91C335.15,218.47,334.86,218.73,334.86,218.73Z" style="fill:#263238"></path><path d="M335.59,218l.93.59c2-1.93,3.22-3.57,3.27-4.8a3.68,3.68,0,0,0-.78-.7C338.51,214.89,336.63,217,335.59,218Z" style="fill:#fff"></path><path d="M338.45,220.37c2.17-2.05,2.5-3.72,2.21-5a9.23,9.23,0,0,0-2,2.75A3.65,3.65,0,0,0,338.45,220.37Z" style="fill:#de5753"></path><path d="M303.23,261.22l-8.42-1.08.25,7.42s5.78,1.58,8.72-2.39Z" style="fill:#ffb573"></path><polygon points="289.16 262.28 290.67 267.77 295.06 267.56 294.81 260.14 289.16 262.28" style="fill:#ffb573"></polygon><path d="M352,248.92c3.09,5.36,8.92,8.66,14.19,10.25.25-4.7.79-10.47,1.69-17.6-3.82-3.59-8.6-5.73-13.77-3.87C354.11,237.7,348.87,243.49,352,248.92Z" style="opacity:0.2"></path><path d="M367.69,238.78c-3.56,7.36-12.85,26.9-21.6,27.81-10.77.12-13.86-16-14.47-24.16a2.49,2.49,0,0,1,4.87-.9,71.6,71.6,0,0,0,5.33,12,12.13,12.13,0,0,0,3.27,3.88c.3.16.45.25.66.23s-.44-.11-.66-.06c-.5.05-.49.13-.34,0a25.3,25.3,0,0,0,4.24-5.34,192.53,192.53,0,0,0,9.69-17.74c3-5.75,11.55-1.71,9,4.29Z" style="fill:#e9b376"></path><path d="M360.37,229.35c4-1,13.59,4.7,7.11,22.34,0,0-14.12-3.6-15.38-7.72S360.37,229.35,360.37,229.35Z" style="fill:#407BFF"></path><path d="M332.59,227.64a1.35,1.35,0,0,0,.15.52,1.38,1.38,0,0,0,.84.67,1.68,1.68,0,0,0,.4.07l-.43,10a.45.45,0,0,0,.9,0l.42-10a1.49,1.49,0,0,0,.41,0,1.44,1.44,0,0,0,.89-.61,1.46,1.46,0,0,0,.2-.5,2.11,2.11,0,0,0,0-.26v-.19l0-.75c0-1-.1-2-.2-3-.19,1-.33,2-.46,3l-.08.75,0,.18a.36.36,0,0,1,0,.11.57.57,0,0,1-.12.18c-.14.16-.29.18-.56.17a.14.14,0,0,1,0-.06l-.21-4.37-.59,4.34,0,0c-.28,0-.42,0-.55-.22a.4.4,0,0,1-.1-.18s0-.07,0-.11v-.19l0-.75c0-1-.1-2-.2-3-.19,1-.33,2-.46,3l-.08.75,0,.19A2.35,2.35,0,0,0,332.59,227.64Z" style="fill:#263238"></path><path d="M332.59,227.64a1.35,1.35,0,0,0,.15.52,1.38,1.38,0,0,0,.84.67,1.68,1.68,0,0,0,.4.07l-.43,10a.45.45,0,0,0,.9,0l.42-10a1.49,1.49,0,0,0,.41,0,1.44,1.44,0,0,0,.89-.61,1.46,1.46,0,0,0,.2-.5,2.11,2.11,0,0,0,0-.26v-.19l0-.75c0-1-.1-2-.2-3-.19,1-.33,2-.46,3l-.08.75,0,.18a.36.36,0,0,1,0,.11.57.57,0,0,1-.12.18c-.14.16-.29.18-.56.17a.14.14,0,0,1,0-.06l-.21-4.37-.59,4.34,0,0c-.28,0-.42,0-.55-.22a.4.4,0,0,1-.1-.18s0-.07,0-.11v-.19l0-.75c0-1-.1-2-.2-3-.19,1-.33,2-.46,3l-.08.75,0,.19A2.35,2.35,0,0,0,332.59,227.64Z" style="fill:#fff;isolation:isolate;opacity:0.4"></path><path d="M331.15,224.05s4.11,1.77,6.38.6.49-4.15-1.6-4.92a1.39,1.39,0,0,0-.19-.06,1.64,1.64,0,0,1-1.23.62c-.68-.08-1.43.9-1.38,1s-.89.42-1.43.6S331.15,224.05,331.15,224.05Z" style="fill:#407BFF"></path><path d="M331.15,224.05s4.11,1.77,6.38.6a4.42,4.42,0,0,0,.38-1.27c.08-.58-.28-.39-.34-.75a2.4,2.4,0,0,0-.63-1.06,7.63,7.63,0,0,0-.85-.6,1.37,1.37,0,0,1-.3-.83,3.29,3.29,0,0,1,.14-.41,1.39,1.39,0,0,0-.19-.06,1.64,1.64,0,0,1-1.23.62c-.68-.08-1.43.9-1.38,1s-.89.42-1.43.6S331.15,224.05,331.15,224.05Z" style="fill:#fff;isolation:isolate;opacity:0.4"></path><path d="M331.15,224.05a4.58,4.58,0,0,0,1.23-.23c.17-.13.37,0,.65-.17a6.21,6.21,0,0,1,1.08-.15c.24-.06,0-.72.13-1s.57.17.72.09a2.09,2.09,0,0,0,.78-.94c.16-.45.22-.67-.11-1s.41-.83.11-.94a1.64,1.64,0,0,1-1.23.62c-.68-.08-1.43.9-1.38,1s-.89.42-1.43.6S331.15,224.05,331.15,224.05Z" style="opacity:0.2"></path><path d="M328.58,234.75l-.87,2.3a2.88,2.88,0,0,0,.29,2.61l2.4,3.6a5.35,5.35,0,0,0,4.28,2.37l1.07,0c1.71-3.71.82-9,.82-9l-.08-1.53a2.39,2.39,0,0,0-2.48-2.31l-3,.13A2.75,2.75,0,0,0,328.58,234.75Z" style="fill:#ebb376"></path><path d="M286.53,255.63C283,251,283,248,283,248l6.38,8h0l8.62,10.82a.56.56,0,1,1-.87.69l-5.73-7.2A18.19,18.19,0,0,1,286.53,255.63Z" style="fill:#263238"></path><path d="M286.53,255.63C283,251,283,248,283,248l6.38,8h0l8.62,10.82a.56.56,0,1,1-.87.69l-5.73-7.2A18.19,18.19,0,0,1,286.53,255.63Z" style="fill:#fff;isolation:isolate;opacity:0.4"></path><path d="M279.94,248.55h6.7s-.26,6.6-.71,8-1,3.69-1,9.34h-6.46c0-5.65-.56-7.93-1-9.34s-.7-8-.7-8Z" style="fill:#407BFF"></path><path d="M279.94,248.55h6.7s-.26,6.6-.71,8-1,3.69-1,9.34h-6.46c0-5.65-.56-7.93-1-9.34s-.7-8-.7-8Z" style="fill:#fff;isolation:isolate;opacity:0.4"></path><path d="M285.72,254.49a10.65,10.65,0,0,1-.29,1.88c-.5,1.56-1,3.84-1,9H279c0-5.13-.55-7.41-1.05-9a13,13,0,0,1-.29-1.88Z" style="fill:#fff;isolation:isolate;opacity:0.4"></path><rect x="268.4" y="257.77" width="2.1" height="6.93" transform="translate(584.64 464.95) rotate(168.76)" style="fill:#407BFF"></rect><rect x="265.48" y="257.76" width="2.1" height="6.93" transform="translate(605.55 417.23) rotate(160.29)" style="fill:#407BFF"></rect><rect x="262.28" y="257.89" width="2.1" height="6.93" transform="translate(625.82 340.37) rotate(147.51)" style="fill:#407BFF"></rect><rect x="258.79" y="258.43" width="2.1" height="6.93" transform="translate(625.94 216.35) rotate(127.68)" style="fill:#407BFF"></rect><path d="M258.88,265.78h9.86a6.75,6.75,0,0,0,6.51-5l0-.05H252.34l0,.05A6.77,6.77,0,0,0,258.88,265.78Z" style="fill:#263238"></path><polygon points="280.46 415.65 279.53 272.95 287.65 272.95 286.72 415.65 280.46 415.65" style="fill:#263238"></polygon><polygon points="286.73 415.65 280.46 415.65 279.69 297.92 279.53 273.2 287.66 273.2 287.5 297.92 286.73 415.65" style="fill:#fff;isolation:isolate;opacity:0.4"></polygon><polygon points="287.66 273.2 287.5 298.2 279.69 298.2 279.53 273.2 287.66 273.2" style="isolation:isolate;opacity:0.2"></polygon><polygon points="344.81 415.65 334.56 272.95 342.69 272.95 351.07 415.65 344.81 415.65" style="fill:#263238"></polygon><polygon points="344.81 415.65 335.1 280.56 334.56 273.2 342.69 273.2 343.13 280.56 351.08 415.65 344.81 415.65" style="fill:#fff;isolation:isolate;opacity:0.5"></polygon><polygon points="343.13 280.2 335.1 280.2 334.56 273.2 342.69 273.2 343.13 280.2" style="isolation:isolate;opacity:0.2"></polygon><polygon points="216.11 415.65 224.49 272.95 232.62 272.95 222.37 415.65 216.11 415.65" style="fill:#263238"></polygon><polygon points="222.37 415.65 216.11 415.65 224.05 280.56 224.49 273.2 232.62 273.2 232.08 280.56 222.37 415.65" style="fill:#fff;isolation:isolate;opacity:0.5"></polygon><polygon points="224.49 273.2 232.62 273.2 232.08 280.2 224.05 280.2 224.49 273.2" style="isolation:isolate;opacity:0.2"></polygon><path d="M218,269.11H349.13a0,0,0,0,1,0,0v5.51a2.16,2.16,0,0,1-2.16,2.16H220.21a2.16,2.16,0,0,1-2.16-2.16v-5.51A0,0,0,0,1,218,269.11Z" style="fill:#263238"></path><path d="M218,269.11H349.13a0,0,0,0,1,0,0v5.51a2.16,2.16,0,0,1-2.16,2.16H220.21a2.16,2.16,0,0,1-2.16-2.16v-5.51A0,0,0,0,1,218,269.11Z" style="fill:#fff;isolation:isolate;opacity:0.6000000000000001"></path><rect x="218.05" y="269.11" width="131.08" height="3.84" style="isolation:isolate;opacity:0.2"></rect><path d="M352.93,270.11H214.25a2.16,2.16,0,0,1-2.16-2.16h0a2.16,2.16,0,0,1,2.16-2.16H352.93a2.16,2.16,0,0,1,2.16,2.16h0A2.16,2.16,0,0,1,352.93,270.11Z" style="fill:#263238"></path><path d="M352.93,270.11H214.25a2.16,2.16,0,0,1-2.16-2.16h0a2.16,2.16,0,0,1,2.16-2.16H352.93a2.16,2.16,0,0,1,2.16,2.16h0A2.16,2.16,0,0,1,352.93,270.11Z" style="fill:#fff;isolation:isolate;opacity:0.6000000000000001"></path><path d="M297.58,264.81c2,1.48,7.42,1.13,13.7-3.83a2,2,0,0,0,.82-2.36c-.36-.93-1.5-1.76-3.53-2-3.78-.42-10.78,3-11.71,6.16A1.78,1.78,0,0,0,297.58,264.81Z" style="fill:#407BFF"></path><path d="M297.58,264.81c2,1.48,7.42,1.13,13.7-3.83a2,2,0,0,0,.82-2.36c-.36-.93-1.5-1.76-3.53-2-3.78-.42-10.78,3-11.71,6.16A1.78,1.78,0,0,0,297.58,264.81Z" style="fill:#fff;isolation:isolate;opacity:0.2"></path><path d="M308.28,260.41c-1.41-.54-5.53,1.11-6.33,3.12S309.2,260.76,308.28,260.41Z" style="opacity:0.2"></path><path d="M297.58,264.81a4.37,4.37,0,0,0,.36-1.6c0-.8.64-1.23,1.55-1s.53-1,.75-1.38a3,3,0,0,1,2-.95c.86,0,.8-.31,1.07-1.06s1.29-1,1.83-1,1.48.35,2-.23,1-.6,2.32,0a9.68,9.68,0,0,0,2.65,1.13c-.36-.93-1.5-1.76-3.53-2-3.78-.42-10.78,3-11.71,6.16A1.78,1.78,0,0,0,297.58,264.81Z" style="opacity:0.4"></path><path d="M309.51,265.1c2.34.07,5.9-.06,8.48-.2,1.77-.09,3.08-.18,3.19-.21l0,0c.09-.16-.52-.84,0-1.68s0-1.39-.27-1.52-.79.09-.85-.32a2.7,2.7,0,0,0-.4-.87,6.35,6.35,0,0,1-1.71-.46h-.64a46.09,46.09,0,0,0-8.73,1,3,3,0,0,0-2.25,1.67C305.89,263.68,307,265,309.51,265.1Z" style="fill:#407BFF"></path><path d="M309.51,265.1c2.34.07,5.9-.06,8.48-.2,1.77-.09,3.08-.18,3.19-.21l0,0c.09-.16-.52-.84,0-1.68s0-1.39-.27-1.52-.79.09-.85-.32a2.7,2.7,0,0,0-.4-.87,6.35,6.35,0,0,1-1.71-.46h-.64c-.38.07-.75.84-.75.84s.73.23.4.48-.53.74-.86,1-1.26-.22-1.85,0-2.44.83-2.83.59-2.31-.57-2.9-.11a2.35,2.35,0,0,1-2.19-.11C305.89,263.68,307,265,309.51,265.1Z" style="fill:#fff;isolation:isolate;opacity:0.4"></path><path d="M316.63,262.85c.2.46.46.26.62.79a3.29,3.29,0,0,0,.7,1.05.73.73,0,0,0,0,.21c.13.46.7,1.35,3.19-.21l0,0c.09-.16-.52-.84,0-1.68s0-1.39-.27-1.52-.79.09-.85-.32a2.7,2.7,0,0,0-.4-.87,6.35,6.35,0,0,1-1.71-.46c-1.44.76-.66,1.26-.73,1.65s.22,1-.16,1S316.43,262.38,316.63,262.85Z" style="opacity:0.2"></path><path d="M292.69,265.87h30.39a5.88,5.88,0,0,0,3.58-1.53H289.11A5.88,5.88,0,0,0,292.69,265.87Z" style="fill:#263238"></path></g></svg>